<svg xmlns="http://www.w3.org/2000/svg" xmlns:xlink="http://www.w3.org/1999/xlink" contentStyleType="text/css" height="1170px" preserveAspectRatio="none" style="width:2690px;height:1170px;background:#FFFFFF;" version="1.1" viewBox="0 0 2690 1170" width="2690px" zoomAndPan="magnify"><defs/><g><text fill="#000000" font-family="sans-serif" font-size="14" font-weight="bold" lengthAdjust="spacing" textLength="343.082" x="1166.5664" y="22.9951">Telephone Line Application - Class Diagram</text><!--class User--><g id="elem_User"><rect codeLine="10" fill="#ADD8E6" height="162.0781" id="User" rx="2.5" ry="2.5" style="stroke:#00008B;stroke-width:0.5;" width="168.0508" x="1980.5" y="44.2969"/><ellipse cx="2044.3203" cy="60.2969" fill="#A9DCDF" rx="11" ry="11" style="stroke:#181818;stroke-width:1.0;"/><path d="M2044.4297,55.6406 L2043.2734,60.7188 L2045.6016,60.7188 L2044.4297,55.6406 Z M2042.9453,53.4063 L2045.9297,53.4063 L2049.2891,65.7969 L2046.8359,65.7969 L2046.0703,62.7344 L2042.7891,62.7344 L2042.0391,65.7969 L2039.6016,65.7969 L2042.9453,53.4063 Z " fill="#000000"/><text fill="#000000" font-family="sans-serif" font-size="14" font-style="italic" lengthAdjust="spacing" textLength="31.9102" x="2064.8203" y="65.1436">User</text><line style="stroke:#00008B;stroke-width:0.5;" x1="1981.5" x2="2147.5508" y1="76.2969" y2="76.2969"/><text fill="#000000" font-family="sans-serif" font-size="14" lengthAdjust="spacing" textLength="101.4453" x="1986.5" y="93.292">-userID: String</text><text fill="#000000" font-family="sans-serif" font-size="14" lengthAdjust="spacing" textLength="95.7031" x="1986.5" y="109.5889">-name: String</text><text fill="#000000" font-family="sans-serif" font-size="14" lengthAdjust="spacing" textLength="156.0508" x="1986.5" y="125.8857">-phoneNumber: String</text><text fill="#000000" font-family="sans-serif" font-size="14" lengthAdjust="spacing" textLength="94.6094" x="1986.5" y="142.1826">-email: String</text><line style="stroke:#00008B;stroke-width:0.5;" x1="1981.5" x2="2147.5508" y1="149.4844" y2="149.4844"/><text fill="#000000" font-family="sans-serif" font-size="14" lengthAdjust="spacing" textLength="56.7588" x="1986.5" y="166.4795">+login()</text><text fill="#000000" font-family="sans-serif" font-size="14" lengthAdjust="spacing" textLength="66.9238" x="1986.5" y="182.7764">+logout()</text><text fill="#000000" font-family="sans-serif" font-size="14" lengthAdjust="spacing" textLength="116.0674" x="1986.5" y="199.0732">+updateProfile()</text></g><!--class RegularUser--><g id="elem_RegularUser"><rect codeLine="20" fill="#ADD8E6" height="145.7813" id="RegularUser" rx="2.5" ry="2.5" style="stroke:#00008B;stroke-width:0.5;" width="368.4736" x="1079.5" y="283.2969"/><ellipse cx="1216.3691" cy="299.2969" fill="#ADD1B2" rx="11" ry="11" style="stroke:#181818;stroke-width:1.0;"/><path d="M1219.3379,304.9375 Q1218.7598,305.2344 1218.1191,305.375 Q1217.4785,305.5313 1216.7754,305.5313 Q1214.2754,305.5313 1212.9473,303.8906 Q1211.6348,302.2344 1211.6348,299.1094 Q1211.6348,295.9844 1212.9473,294.3281 Q1214.2754,292.6719 1216.7754,292.6719 Q1217.4785,292.6719 1218.1191,292.8281 Q1218.7754,292.9844 1219.3379,293.2813 L1219.3379,296 Q1218.7129,295.4219 1218.1191,295.1563 Q1217.5254,294.875 1216.9004,294.875 Q1215.5566,294.875 1214.8691,295.9531 Q1214.1816,297.0156 1214.1816,299.1094 Q1214.1816,301.2031 1214.8691,302.2813 Q1215.5566,303.3438 1216.9004,303.3438 Q1217.5254,303.3438 1218.1191,303.0781 Q1218.7129,302.7969 1219.3379,302.2188 L1219.3379,304.9375 Z " fill="#000000"/><text fill="#000000" font-family="sans-serif" font-size="14" lengthAdjust="spacing" textLength="86.2354" x="1236.8691" y="304.1436">RegularUser</text><line style="stroke:#00008B;stroke-width:0.5;" x1="1080.5" x2="1446.9736" y1="315.2969" y2="315.2969"/><text fill="#000000" font-family="sans-serif" font-size="14" lengthAdjust="spacing" textLength="193.4844" x="1085.5" y="332.292">-contactList: List&lt;Contact&gt;</text><line style="stroke:#00008B;stroke-width:0.5;" x1="1080.5" x2="1446.9736" y1="339.5938" y2="339.5938"/><text fill="#000000" font-family="sans-serif" font-size="14" lengthAdjust="spacing" textLength="203.752" x="1085.5" y="356.5889">+makeCall(contact: Contact)</text><text fill="#000000" font-family="sans-serif" font-size="14" lengthAdjust="spacing" textLength="179.7578" x="1085.5" y="372.8857">+receiveCall(caller: User)</text><text fill="#000000" font-family="sans-serif" font-size="14" lengthAdjust="spacing" textLength="356.4736" x="1085.5" y="389.1826">+sendMessage(recipient: Contact, content: String)</text><text fill="#000000" font-family="sans-serif" font-size="14" lengthAdjust="spacing" textLength="131.9814" x="1085.5" y="405.4795">+checkVoicemail()</text><text fill="#000000" font-family="sans-serif" font-size="14" lengthAdjust="spacing" textLength="130.833" x="1085.5" y="421.7764">+viewCallHistory()</text></g><!--class AdminUser--><g id="elem_AdminUser"><rect codeLine="29" fill="#ADD8E6" height="96.8906" id="AdminUser" rx="2.5" ry="2.5" style="stroke:#00008B;stroke-width:0.5;" width="201.4512" x="2041" y="307.7969"/><ellipse cx="2099.0884" cy="323.7969" fill="#ADD1B2" rx="11" ry="11" style="stroke:#181818;stroke-width:1.0;"/><path d="M2102.0571,329.4375 Q2101.479,329.7344 2100.8384,329.875 Q2100.1978,330.0313 2099.4946,330.0313 Q2096.9946,330.0313 2095.6665,328.3906 Q2094.354,326.7344 2094.354,323.6094 Q2094.354,320.4844 2095.6665,318.8281 Q2096.9946,317.1719 2099.4946,317.1719 Q2100.1978,317.1719 2100.8384,317.3281 Q2101.4946,317.4844 2102.0571,317.7813 L2102.0571,320.5 Q2101.4321,319.9219 2100.8384,319.6563 Q2100.2446,319.375 2099.6196,319.375 Q2098.2759,319.375 2097.5884,320.4531 Q2096.9009,321.5156 2096.9009,323.6094 Q2096.9009,325.7031 2097.5884,326.7813 Q2098.2759,327.8438 2099.6196,327.8438 Q2100.2446,327.8438 2100.8384,327.5781 Q2101.4321,327.2969 2102.0571,326.7188 L2102.0571,329.4375 Z " fill="#000000"/><text fill="#000000" font-family="sans-serif" font-size="14" lengthAdjust="spacing" textLength="76.7744" x="2119.5884" y="328.6436">AdminUser</text><line style="stroke:#00008B;stroke-width:0.5;" x1="2042" x2="2241.4512" y1="339.7969" y2="339.7969"/><line style="stroke:#00008B;stroke-width:0.5;" x1="2042" x2="2241.4512" y1="347.7969" y2="347.7969"/><text fill="#000000" font-family="sans-serif" font-size="14" lengthAdjust="spacing" textLength="122.7461" x="2047" y="364.792">+manageBilling()</text><text fill="#000000" font-family="sans-serif" font-size="14" lengthAdjust="spacing" textLength="140.4102" x="2047" y="381.0889">+generateReports()</text><text fill="#000000" font-family="sans-serif" font-size="14" lengthAdjust="spacing" textLength="189.4512" x="2047" y="397.3857">+manageSystemSettings()</text></g><!--class Contact--><g id="elem_Contact"><rect codeLine="35" fill="#ADD8E6" height="129.4844" id="Contact" rx="2.5" ry="2.5" style="stroke:#00008B;stroke-width:0.5;" width="168.0508" x="2277.5" y="291.7969"/><ellipse cx="2330.041" cy="307.7969" fill="#ADD1B2" rx="11" ry="11" style="stroke:#181818;stroke-width:1.0;"/><path d="M2333.0098,313.4375 Q2332.4316,313.7344 2331.791,313.875 Q2331.1504,314.0313 2330.4473,314.0313 Q2327.9473,314.0313 2326.6191,312.3906 Q2325.3066,310.7344 2325.3066,307.6094 Q2325.3066,304.4844 2326.6191,302.8281 Q2327.9473,301.1719 2330.4473,301.1719 Q2331.1504,301.1719 2331.791,301.3281 Q2332.4473,301.4844 2333.0098,301.7813 L2333.0098,304.5 Q2332.3848,303.9219 2331.791,303.6563 Q2331.1973,303.375 2330.5723,303.375 Q2329.2285,303.375 2328.541,304.4531 Q2327.8535,305.5156 2327.8535,307.6094 Q2327.8535,309.7031 2328.541,310.7813 Q2329.2285,311.8438 2330.5723,311.8438 Q2331.1973,311.8438 2331.791,311.5781 Q2332.3848,311.2969 2333.0098,310.7188 L2333.0098,313.4375 Z " fill="#000000"/><text fill="#000000" font-family="sans-serif" font-size="14" lengthAdjust="spacing" textLength="54.4688" x="2350.541" y="312.6436">Contact</text><line style="stroke:#00008B;stroke-width:0.5;" x1="2278.5" x2="2444.5508" y1="323.7969" y2="323.7969"/><text fill="#000000" font-family="sans-serif" font-size="14" lengthAdjust="spacing" textLength="123.2998" x="2283.5" y="340.792">-contactID: String</text><text fill="#000000" font-family="sans-serif" font-size="14" lengthAdjust="spacing" textLength="95.7031" x="2283.5" y="357.0889">-name: String</text><text fill="#000000" font-family="sans-serif" font-size="14" lengthAdjust="spacing" textLength="156.0508" x="2283.5" y="373.3857">-phoneNumber: String</text><text fill="#000000" font-family="sans-serif" font-size="14" lengthAdjust="spacing" textLength="94.6094" x="2283.5" y="389.6826">-email: String</text><line style="stroke:#00008B;stroke-width:0.5;" x1="2278.5" x2="2444.5508" y1="396.9844" y2="396.9844"/><text fill="#000000" font-family="sans-serif" font-size="14" lengthAdjust="spacing" textLength="120.5176" x="2283.5" y="413.9795">+updateDetails()</text></g><!--class Call--><g id="elem_Call"><rect codeLine="43" fill="#ADD8E6" height="243.5625" id="Call" rx="2.5" ry="2.5" style="stroke:#00008B;stroke-width:0.5;" width="251.7705" x="1290.5" y="761.2969"/><ellipse cx="1399.0684" cy="777.2969" fill="#ADD1B2" rx="11" ry="11" style="stroke:#181818;stroke-width:1.0;"/><path d="M1402.0371,782.9375 Q1401.459,783.2344 1400.8184,783.375 Q1400.1777,783.5313 1399.4746,783.5313 Q1396.9746,783.5313 1395.6465,781.8906 Q1394.334,780.2344 1394.334,777.1094 Q1394.334,773.9844 1395.6465,772.3281 Q1396.9746,770.6719 1399.4746,770.6719 Q1400.1777,770.6719 1400.8184,770.8281 Q1401.4746,770.9844 1402.0371,771.2813 L1402.0371,774 Q1401.4121,773.4219 1400.8184,773.1563 Q1400.2246,772.875 1399.5996,772.875 Q1398.2559,772.875 1397.5684,773.9531 Q1396.8809,775.0156 1396.8809,777.1094 Q1396.8809,779.2031 1397.5684,780.2813 Q1398.2559,781.3438 1399.5996,781.3438 Q1400.2246,781.3438 1400.8184,781.0781 Q1401.4121,780.7969 1402.0371,780.2188 L1402.0371,782.9375 Z " fill="#000000"/><text fill="#000000" font-family="sans-serif" font-size="14" lengthAdjust="spacing" textLength="26.1338" x="1419.5684" y="782.1436">Call</text><line style="stroke:#00008B;stroke-width:0.5;" x1="1291.5" x2="1541.2705" y1="793.2969" y2="793.2969"/><text fill="#000000" font-family="sans-serif" font-size="14" lengthAdjust="spacing" textLength="94.9648" x="1296.5" y="810.292">-callID: String</text><text fill="#000000" font-family="sans-serif" font-size="14" lengthAdjust="spacing" textLength="84.5537" x="1296.5" y="826.5889">-caller: User</text><text fill="#000000" font-family="sans-serif" font-size="14" lengthAdjust="spacing" textLength="107.8369" x="1296.5" y="842.8857">-recipient: User</text><text fill="#000000" font-family="sans-serif" font-size="14" lengthAdjust="spacing" textLength="149.6729" x="1296.5" y="859.1826">-startTime: DateTime</text><text fill="#000000" font-family="sans-serif" font-size="14" lengthAdjust="spacing" textLength="143.4385" x="1296.5" y="875.4795">-endTime: DateTime</text><text fill="#000000" font-family="sans-serif" font-size="14" lengthAdjust="spacing" textLength="91.6221" x="1296.5" y="891.7764">-duration: Int</text><text fill="#000000" font-family="sans-serif" font-size="14" lengthAdjust="spacing" textLength="127.9824" x="1296.5" y="908.0732">-status: CallStatus</text><line style="stroke:#00008B;stroke-width:0.5;" x1="1291.5" x2="1541.2705" y1="915.375" y2="915.375"/><text fill="#000000" font-family="sans-serif" font-size="14" lengthAdjust="spacing" textLength="97.501" x="1296.5" y="932.3701">+initiateCall()</text><text fill="#000000" font-family="sans-serif" font-size="14" lengthAdjust="spacing" textLength="75.1611" x="1296.5" y="948.667">+endCall()</text><text fill="#000000" font-family="sans-serif" font-size="14" lengthAdjust="spacing" textLength="79.0029" x="1296.5" y="964.9639">+holdCall()</text><text fill="#000000" font-family="sans-serif" font-size="14" lengthAdjust="spacing" textLength="101.5752" x="1296.5" y="981.2607">+resumeCall()</text><text fill="#000000" font-family="sans-serif" font-size="14" lengthAdjust="spacing" textLength="239.7705" x="1296.5" y="997.5576">+transferCall(newRecipient: User)</text></g><!--class CallStatus--><g id="elem_CallStatus"><rect codeLine="58" fill="#ADD8E6" height="113.1875" id="CallStatus" rx="2.5" ry="2.5" style="stroke:#00008B;stroke-width:0.5;" width="102.7451" x="2184" y="68.7969"/><ellipse cx="2199" cy="84.7969" fill="#EB937F" rx="11" ry="11" style="stroke:#181818;stroke-width:1.0;"/><path d="M2203.1094,90.7969 L2195.3906,90.7969 L2195.3906,78.4063 L2203.1094,78.4063 L2203.1094,80.5625 L2197.8438,80.5625 L2197.8438,83.2344 L2202.6094,83.2344 L2202.6094,85.3906 L2197.8438,85.3906 L2197.8438,88.6406 L2203.1094,88.6406 L2203.1094,90.7969 Z " fill="#000000"/><text fill="#000000" font-family="sans-serif" font-size="14" lengthAdjust="spacing" textLength="70.7451" x="2213" y="89.6436">CallStatus</text><line style="stroke:#00008B;stroke-width:0.5;" x1="2185" x2="2285.7451" y1="100.7969" y2="100.7969"/><text fill="#000000" font-family="sans-serif" font-size="14" lengthAdjust="spacing" textLength="50.4561" x="2190" y="117.792">ACTIVE</text><text fill="#000000" font-family="sans-serif" font-size="14" lengthAdjust="spacing" textLength="68.6191" x="2190" y="134.0889">ON_HOLD</text><text fill="#000000" font-family="sans-serif" font-size="14" lengthAdjust="spacing" textLength="49.7246" x="2190" y="150.3857">ENDED</text><text fill="#000000" font-family="sans-serif" font-size="14" lengthAdjust="spacing" textLength="49.1846" x="2190" y="166.6826">FAILED</text><line style="stroke:#00008B;stroke-width:0.5;" x1="2185" x2="2285.7451" y1="173.9844" y2="173.9844"/></g><!--class ConferenceCall--><g id="elem_ConferenceCall"><rect codeLine="65" fill="#ADD8E6" height="96.8906" id="ConferenceCall" rx="2.5" ry="2.5" style="stroke:#00008B;stroke-width:0.5;" width="235.3096" x="7" y="1066.2969"/><ellipse cx="67.1836" cy="1082.2969" fill="#ADD1B2" rx="11" ry="11" style="stroke:#181818;stroke-width:1.0;"/><path d="M70.1523,1087.9375 Q69.5742,1088.2344 68.9336,1088.375 Q68.293,1088.5313 67.5898,1088.5313 Q65.0898,1088.5313 63.7617,1086.8906 Q62.4492,1085.2344 62.4492,1082.1094 Q62.4492,1078.9844 63.7617,1077.3281 Q65.0898,1075.6719 67.5898,1075.6719 Q68.293,1075.6719 68.9336,1075.8281 Q69.5898,1075.9844 70.1523,1076.2813 L70.1523,1079 Q69.5273,1078.4219 68.9336,1078.1563 Q68.3398,1077.875 67.7148,1077.875 Q66.3711,1077.875 65.6836,1078.9531 Q64.9961,1080.0156 64.9961,1082.1094 Q64.9961,1084.2031 65.6836,1085.2813 Q66.3711,1086.3438 67.7148,1086.3438 Q68.3398,1086.3438 68.9336,1086.0781 Q69.5273,1085.7969 70.1523,1085.2188 L70.1523,1087.9375 Z " fill="#000000"/><text fill="#000000" font-family="sans-serif" font-size="14" lengthAdjust="spacing" textLength="106.4424" x="87.6836" y="1087.1436">ConferenceCall</text><line style="stroke:#00008B;stroke-width:0.5;" x1="8" x2="241.3096" y1="1098.2969" y2="1098.2969"/><text fill="#000000" font-family="sans-serif" font-size="14" lengthAdjust="spacing" textLength="177.3721" x="13" y="1115.292">-participants: List&lt;User&gt;</text><line style="stroke:#00008B;stroke-width:0.5;" x1="8" x2="241.3096" y1="1122.5938" y2="1122.5938"/><text fill="#000000" font-family="sans-serif" font-size="14" lengthAdjust="spacing" textLength="196.1914" x="13" y="1139.5889">+addParticipant(user: User)</text><text fill="#000000" font-family="sans-serif" font-size="14" lengthAdjust="spacing" textLength="223.3096" x="13" y="1155.8857">+removeParticipant(user: User)</text></g><!--class VoicemailBox--><g id="elem_VoicemailBox"><rect codeLine="71" fill="#ADD8E6" height="129.4844" id="VoicemailBox" rx="2.5" ry="2.5" style="stroke:#00008B;stroke-width:0.5;" width="349.4014" x="195" y="530.7969"/><ellipse cx="318.0537" cy="546.7969" fill="#ADD1B2" rx="11" ry="11" style="stroke:#181818;stroke-width:1.0;"/><path d="M321.0225,552.4375 Q320.4443,552.7344 319.8037,552.875 Q319.1631,553.0313 318.46,553.0313 Q315.96,553.0313 314.6318,551.3906 Q313.3193,549.7344 313.3193,546.6094 Q313.3193,543.4844 314.6318,541.8281 Q315.96,540.1719 318.46,540.1719 Q319.1631,540.1719 319.8037,540.3281 Q320.46,540.4844 321.0225,540.7813 L321.0225,543.5 Q320.3975,542.9219 319.8037,542.6563 Q319.21,542.375 318.585,542.375 Q317.2412,542.375 316.5537,543.4531 Q315.8662,544.5156 315.8662,546.6094 Q315.8662,548.7031 316.5537,549.7813 Q317.2412,550.8438 318.585,550.8438 Q319.21,550.8438 319.8037,550.5781 Q320.3975,550.2969 321.0225,549.7188 L321.0225,552.4375 Z " fill="#000000"/><text fill="#000000" font-family="sans-serif" font-size="14" lengthAdjust="spacing" textLength="94.7939" x="338.5537" y="551.6436">VoicemailBox</text><line style="stroke:#00008B;stroke-width:0.5;" x1="196" x2="543.4014" y1="562.7969" y2="562.7969"/><text fill="#000000" font-family="sans-serif" font-size="14" lengthAdjust="spacing" textLength="114.167" x="201" y="579.792">-ownerID: String</text><text fill="#000000" font-family="sans-serif" font-size="14" lengthAdjust="spacing" textLength="262.0625" x="201" y="596.0889">-messages: List&lt;VoicemailMessage&gt;</text><line style="stroke:#00008B;stroke-width:0.5;" x1="196" x2="543.4014" y1="603.3906" y2="603.3906"/><text fill="#000000" font-family="sans-serif" font-size="14" lengthAdjust="spacing" textLength="337.4014" x="201" y="620.3857">+leaveMessage(caller: User, content: AudioFile)</text><text fill="#000000" font-family="sans-serif" font-size="14" lengthAdjust="spacing" textLength="242.4297" x="201" y="636.6826">+playMessage(messageID: String)</text><text fill="#000000" font-family="sans-serif" font-size="14" lengthAdjust="spacing" textLength="256.8945" x="201" y="652.9795">+deleteMessage(messageID: String)</text></g><!--class VoicemailMessage--><g id="elem_VoicemailMessage"><rect codeLine="79" fill="#ADD8E6" height="145.7813" id="VoicemailMessage" rx="2.5" ry="2.5" style="stroke:#00008B;stroke-width:0.5;" width="169.8896" x="284.5" y="810.2969"/><ellipse cx="303.1861" cy="826.2969" fill="#ADD1B2" rx="11" ry="11" style="stroke:#181818;stroke-width:1.0;"/><path d="M306.1549,831.9375 Q305.5768,832.2344 304.9361,832.375 Q304.2955,832.5313 303.5924,832.5313 Q301.0924,832.5313 299.7643,830.8906 Q298.4518,829.2344 298.4518,826.1094 Q298.4518,822.9844 299.7643,821.3281 Q301.0924,819.6719 303.5924,819.6719 Q304.2955,819.6719 304.9361,819.8281 Q305.5924,819.9844 306.1549,820.2813 L306.1549,823 Q305.5299,822.4219 304.9361,822.1563 Q304.3424,821.875 303.7174,821.875 Q302.3736,821.875 301.6861,822.9531 Q300.9986,824.0156 300.9986,826.1094 Q300.9986,828.2031 301.6861,829.2813 Q302.3736,830.3438 303.7174,830.3438 Q304.3424,830.3438 304.9361,830.0781 Q305.5299,829.7969 306.1549,829.2188 L306.1549,831.9375 Z " fill="#000000"/><text fill="#000000" font-family="sans-serif" font-size="14" lengthAdjust="spacing" textLength="129.6982" x="318.0053" y="831.1436">VoicemailMessage</text><line style="stroke:#00008B;stroke-width:0.5;" x1="285.5" x2="453.3896" y1="842.2969" y2="842.2969"/><text fill="#000000" font-family="sans-serif" font-size="14" lengthAdjust="spacing" textLength="133.8271" x="290.5" y="859.292">-messageID: String</text><text fill="#000000" font-family="sans-serif" font-size="14" lengthAdjust="spacing" textLength="84.5537" x="290.5" y="875.5889">-caller: User</text><text fill="#000000" font-family="sans-serif" font-size="14" lengthAdjust="spacing" textLength="132.0566" x="290.5" y="891.8857">-content: AudioFile</text><text fill="#000000" font-family="sans-serif" font-size="14" lengthAdjust="spacing" textLength="157.8896" x="290.5" y="908.1826">-timestamp: DateTime</text><line style="stroke:#00008B;stroke-width:0.5;" x1="285.5" x2="453.3896" y1="915.4844" y2="915.4844"/><text fill="#000000" font-family="sans-serif" font-size="14" lengthAdjust="spacing" textLength="52.2949" x="290.5" y="932.4795">+play()</text><text fill="#000000" font-family="sans-serif" font-size="14" lengthAdjust="spacing" textLength="66.7598" x="290.5" y="948.7764">+delete()</text></g><!--class CallHistory--><g id="elem_CallHistory"><rect codeLine="88" fill="#ADD8E6" height="129.4844" id="CallHistory" rx="2.5" ry="2.5" style="stroke:#00008B;stroke-width:0.5;" width="271.9912" x="579.5" y="530.7969"/><ellipse cx="673.2754" cy="546.7969" fill="#ADD1B2" rx="11" ry="11" style="stroke:#181818;stroke-width:1.0;"/><path d="M676.2441,552.4375 Q675.666,552.7344 675.0254,552.875 Q674.3848,553.0313 673.6816,553.0313 Q671.1816,553.0313 669.8535,551.3906 Q668.541,549.7344 668.541,546.6094 Q668.541,543.4844 669.8535,541.8281 Q671.1816,540.1719 673.6816,540.1719 Q674.3848,540.1719 675.0254,540.3281 Q675.6816,540.4844 676.2441,540.7813 L676.2441,543.5 Q675.6191,542.9219 675.0254,542.6563 Q674.4316,542.375 673.8066,542.375 Q672.4629,542.375 671.7754,543.4531 Q671.0879,544.5156 671.0879,546.6094 Q671.0879,548.7031 671.7754,549.7813 Q672.4629,550.8438 673.8066,550.8438 Q674.4316,550.8438 675.0254,550.5781 Q675.6191,550.2969 676.2441,549.7188 L676.2441,552.4375 Z " fill="#000000"/><text fill="#000000" font-family="sans-serif" font-size="14" lengthAdjust="spacing" textLength="75.9404" x="693.7754" y="551.6436">CallHistory</text><line style="stroke:#00008B;stroke-width:0.5;" x1="580.5" x2="850.4912" y1="562.7969" y2="562.7969"/><text fill="#000000" font-family="sans-serif" font-size="14" lengthAdjust="spacing" textLength="101.4453" x="585.5" y="579.792">-userID: String</text><text fill="#000000" font-family="sans-serif" font-size="14" lengthAdjust="spacing" textLength="119.6357" x="585.5" y="596.0889">-calls: List&lt;Call&gt;</text><line style="stroke:#00008B;stroke-width:0.5;" x1="580.5" x2="850.4912" y1="603.3906" y2="603.3906"/><text fill="#000000" font-family="sans-serif" font-size="14" lengthAdjust="spacing" textLength="134.4971" x="585.5" y="620.3857">+addCall(call: Call)</text><text fill="#000000" font-family="sans-serif" font-size="14" lengthAdjust="spacing" textLength="259.9912" x="585.5" y="636.6826">+getCalls(filterCriteria: FilterCriteria)</text><text fill="#000000" font-family="sans-serif" font-size="14" lengthAdjust="spacing" textLength="182.8066" x="585.5" y="652.9795">+deleteCall(callID: String)</text></g><!--class Message--><g id="elem_Message"><rect codeLine="96" fill="#ADD8E6" height="178.375" id="Message" rx="2.5" ry="2.5" style="stroke:#00008B;stroke-width:0.5;" width="175.208" x="887" y="506.2969"/><ellipse cx="939.6743" cy="522.2969" fill="#ADD1B2" rx="11" ry="11" style="stroke:#181818;stroke-width:1.0;"/><path d="M942.6431,527.9375 Q942.0649,528.2344 941.4243,528.375 Q940.7837,528.5313 940.0806,528.5313 Q937.5806,528.5313 936.2524,526.8906 Q934.9399,525.2344 934.9399,522.1094 Q934.9399,518.9844 936.2524,517.3281 Q937.5806,515.6719 940.0806,515.6719 Q940.7837,515.6719 941.4243,515.8281 Q942.0806,515.9844 942.6431,516.2813 L942.6431,519 Q942.0181,518.4219 941.4243,518.1563 Q940.8306,517.875 940.2056,517.875 Q938.8618,517.875 938.1743,518.9531 Q937.4868,520.0156 937.4868,522.1094 Q937.4868,524.2031 938.1743,525.2813 Q938.8618,526.3438 940.2056,526.3438 Q940.8306,526.3438 941.4243,526.0781 Q942.0181,525.7969 942.6431,525.2188 L942.6431,527.9375 Z " fill="#000000"/><text fill="#000000" font-family="sans-serif" font-size="14" lengthAdjust="spacing" textLength="61.3594" x="960.1743" y="527.1436">Message</text><line style="stroke:#00008B;stroke-width:0.5;" x1="888" x2="1061.208" y1="538.2969" y2="538.2969"/><text fill="#000000" font-family="sans-serif" font-size="14" lengthAdjust="spacing" textLength="133.8271" x="893" y="555.292">-messageID: String</text><text fill="#000000" font-family="sans-serif" font-size="14" lengthAdjust="spacing" textLength="94.165" x="893" y="571.5889">-sender: User</text><text fill="#000000" font-family="sans-serif" font-size="14" lengthAdjust="spacing" textLength="107.8369" x="893" y="587.8857">-recipient: User</text><text fill="#000000" font-family="sans-serif" font-size="14" lengthAdjust="spacing" textLength="109.6006" x="893" y="604.1826">-content: String</text><text fill="#000000" font-family="sans-serif" font-size="14" lengthAdjust="spacing" textLength="157.8896" x="893" y="620.4795">-timestamp: DateTime</text><text fill="#000000" font-family="sans-serif" font-size="14" lengthAdjust="spacing" textLength="163.208" x="893" y="636.7764">-status: MessageStatus</text><line style="stroke:#00008B;stroke-width:0.5;" x1="888" x2="1061.208" y1="644.0781" y2="644.0781"/><text fill="#000000" font-family="sans-serif" font-size="14" lengthAdjust="spacing" textLength="56.3213" x="893" y="661.0732">+send()</text><text fill="#000000" font-family="sans-serif" font-size="14" lengthAdjust="spacing" textLength="111.4121" x="893" y="677.3701">+markAsRead()</text></g><!--class MessageStatus--><g id="elem_MessageStatus"><rect codeLine="107" fill="#ADD8E6" height="96.8906" id="MessageStatus" rx="2.5" ry="2.5" style="stroke:#00008B;stroke-width:0.5;" width="137.9707" x="2322.5" y="76.7969"/><ellipse cx="2337.5" cy="92.7969" fill="#EB937F" rx="11" ry="11" style="stroke:#181818;stroke-width:1.0;"/><path d="M2341.6094,98.7969 L2333.8906,98.7969 L2333.8906,86.4063 L2341.6094,86.4063 L2341.6094,88.5625 L2336.3438,88.5625 L2336.3438,91.2344 L2341.1094,91.2344 L2341.1094,93.3906 L2336.3438,93.3906 L2336.3438,96.6406 L2341.6094,96.6406 L2341.6094,98.7969 Z " fill="#000000"/><text fill="#000000" font-family="sans-serif" font-size="14" lengthAdjust="spacing" textLength="105.9707" x="2351.5" y="97.6436">MessageStatus</text><line style="stroke:#00008B;stroke-width:0.5;" x1="2323.5" x2="2459.4707" y1="108.7969" y2="108.7969"/><text fill="#000000" font-family="sans-serif" font-size="14" lengthAdjust="spacing" textLength="36.7568" x="2328.5" y="125.792">SENT</text><text fill="#000000" font-family="sans-serif" font-size="14" lengthAdjust="spacing" textLength="79.3311" x="2328.5" y="142.0889">DELIVERED</text><text fill="#000000" font-family="sans-serif" font-size="14" lengthAdjust="spacing" textLength="38.9307" x="2328.5" y="158.3857">READ</text><line style="stroke:#00008B;stroke-width:0.5;" x1="2323.5" x2="2459.4707" y1="165.6875" y2="165.6875"/></g><!--class CallForwarding--><g id="elem_CallForwarding"><rect codeLine="113" fill="#ADD8E6" height="145.7813" id="CallForwarding" rx="2.5" ry="2.5" style="stroke:#00008B;stroke-width:0.5;" width="333.3916" x="1097" y="522.2969"/><ellipse cx="1207.0313" cy="538.2969" fill="#ADD1B2" rx="11" ry="11" style="stroke:#181818;stroke-width:1.0;"/><path d="M1210,543.9375 Q1209.4219,544.2344 1208.7813,544.375 Q1208.1406,544.5313 1207.4375,544.5313 Q1204.9375,544.5313 1203.6094,542.8906 Q1202.2969,541.2344 1202.2969,538.1094 Q1202.2969,534.9844 1203.6094,533.3281 Q1204.9375,531.6719 1207.4375,531.6719 Q1208.1406,531.6719 1208.7813,531.8281 Q1209.4375,531.9844 1210,532.2813 L1210,535 Q1209.375,534.4219 1208.7813,534.1563 Q1208.1875,533.875 1207.5625,533.875 Q1206.2188,533.875 1205.5313,534.9531 Q1204.8438,536.0156 1204.8438,538.1094 Q1204.8438,540.2031 1205.5313,541.2813 Q1206.2188,542.3438 1207.5625,542.3438 Q1208.1875,542.3438 1208.7813,542.0781 Q1209.375,541.7969 1210,541.2188 L1210,543.9375 Z " fill="#000000"/><text fill="#000000" font-family="sans-serif" font-size="14" lengthAdjust="spacing" textLength="104.8291" x="1227.5313" y="543.1436">CallForwarding</text><line style="stroke:#00008B;stroke-width:0.5;" x1="1098" x2="1429.3916" y1="554.2969" y2="554.2969"/><text fill="#000000" font-family="sans-serif" font-size="14" lengthAdjust="spacing" textLength="101.4453" x="1103" y="571.292">-userID: String</text><text fill="#000000" font-family="sans-serif" font-size="14" lengthAdjust="spacing" textLength="183.2783" x="1103" y="587.5889">-forwardToNumber: String</text><text fill="#000000" font-family="sans-serif" font-size="14" lengthAdjust="spacing" textLength="125.6445" x="1103" y="603.8857">-isActive: Boolean</text><line style="stroke:#00008B;stroke-width:0.5;" x1="1098" x2="1429.3916" y1="611.1875" y2="611.1875"/><text fill="#000000" font-family="sans-serif" font-size="14" lengthAdjust="spacing" textLength="79.2764" x="1103" y="628.1826">+activate()</text><text fill="#000000" font-family="sans-serif" font-size="14" lengthAdjust="spacing" textLength="96.7764" x="1103" y="644.4795">+deactivate()</text><text fill="#000000" font-family="sans-serif" font-size="14" lengthAdjust="spacing" textLength="321.3916" x="1103" y="660.7764">+updateForwardNumber(newNumber: String)</text></g><!--class DoNotDisturb--><g id="elem_DoNotDisturb"><rect codeLine="122" fill="#ADD8E6" height="162.0781" id="DoNotDisturb" rx="2.5" ry="2.5" style="stroke:#00008B;stroke-width:0.5;" width="303.915" x="1465.5" y="514.2969"/><ellipse cx="1565.7866" cy="530.2969" fill="#ADD1B2" rx="11" ry="11" style="stroke:#181818;stroke-width:1.0;"/><path d="M1568.7554,535.9375 Q1568.1772,536.2344 1567.5366,536.375 Q1566.896,536.5313 1566.1929,536.5313 Q1563.6929,536.5313 1562.3647,534.8906 Q1561.0522,533.2344 1561.0522,530.1094 Q1561.0522,526.9844 1562.3647,525.3281 Q1563.6929,523.6719 1566.1929,523.6719 Q1566.896,523.6719 1567.5366,523.8281 Q1568.1929,523.9844 1568.7554,524.2813 L1568.7554,527 Q1568.1304,526.4219 1567.5366,526.1563 Q1566.9429,525.875 1566.3179,525.875 Q1564.9741,525.875 1564.2866,526.9531 Q1563.5991,528.0156 1563.5991,530.1094 Q1563.5991,532.2031 1564.2866,533.2813 Q1564.9741,534.3438 1566.3179,534.3438 Q1566.9429,534.3438 1567.5366,534.0781 Q1568.1304,533.7969 1568.7554,533.2188 L1568.7554,535.9375 Z " fill="#000000"/><text fill="#000000" font-family="sans-serif" font-size="14" lengthAdjust="spacing" textLength="94.8418" x="1586.2866" y="535.1436">DoNotDisturb</text><line style="stroke:#00008B;stroke-width:0.5;" x1="1466.5" x2="1768.415" y1="546.2969" y2="546.2969"/><text fill="#000000" font-family="sans-serif" font-size="14" lengthAdjust="spacing" textLength="101.4453" x="1471.5" y="563.292">-userID: String</text><text fill="#000000" font-family="sans-serif" font-size="14" lengthAdjust="spacing" textLength="125.6445" x="1471.5" y="579.5889">-isActive: Boolean</text><text fill="#000000" font-family="sans-serif" font-size="14" lengthAdjust="spacing" textLength="145.8516" x="1471.5" y="595.8857">-scheduleStart: Time</text><text fill="#000000" font-family="sans-serif" font-size="14" lengthAdjust="spacing" textLength="138.2568" x="1471.5" y="612.1826">-scheduleEnd: Time</text><line style="stroke:#00008B;stroke-width:0.5;" x1="1466.5" x2="1768.415" y1="619.4844" y2="619.4844"/><text fill="#000000" font-family="sans-serif" font-size="14" lengthAdjust="spacing" textLength="79.2764" x="1471.5" y="636.4795">+activate()</text><text fill="#000000" font-family="sans-serif" font-size="14" lengthAdjust="spacing" textLength="96.7764" x="1471.5" y="652.7764">+deactivate()</text><text fill="#000000" font-family="sans-serif" font-size="14" lengthAdjust="spacing" textLength="291.915" x="1471.5" y="669.0732">+updateSchedule(start: Time, end: Time)</text></g><!--class EmergencyService--><g id="elem_EmergencyService"><rect codeLine="132" fill="#ADD8E6" height="80.5938" id="EmergencyService" rx="2.5" ry="2.5" style="stroke:#00008B;stroke-width:0.5;" width="203.2148" x="2480" y="315.7969"/><ellipse cx="2513.1195" cy="331.7969" fill="#ADD1B2" rx="11" ry="11" style="stroke:#181818;stroke-width:1.0;"/><path d="M2516.0883,337.4375 Q2515.5102,337.7344 2514.8695,337.875 Q2514.2289,338.0313 2513.5258,338.0313 Q2511.0258,338.0313 2509.6977,336.3906 Q2508.3852,334.7344 2508.3852,331.6094 Q2508.3852,328.4844 2509.6977,326.8281 Q2511.0258,325.1719 2513.5258,325.1719 Q2514.2289,325.1719 2514.8695,325.3281 Q2515.5258,325.4844 2516.0883,325.7813 L2516.0883,328.5 Q2515.4633,327.9219 2514.8695,327.6563 Q2514.2758,327.375 2513.6508,327.375 Q2512.307,327.375 2511.6195,328.4531 Q2510.932,329.5156 2510.932,331.6094 Q2510.932,333.7031 2511.6195,334.7813 Q2512.307,335.8438 2513.6508,335.8438 Q2514.2758,335.8438 2514.8695,335.5781 Q2515.4633,335.2969 2516.0883,334.7188 L2516.0883,337.4375 Z " fill="#000000"/><text fill="#000000" font-family="sans-serif" font-size="14" lengthAdjust="spacing" textLength="130.9492" x="2531.1461" y="336.6436">EmergencyService</text><line style="stroke:#00008B;stroke-width:0.5;" x1="2481" x2="2682.2148" y1="347.7969" y2="347.7969"/><text fill="#000000" font-family="sans-serif" font-size="14" lengthAdjust="spacing" textLength="191.2148" x="2486" y="364.792">-emergencyNumber: String</text><line style="stroke:#00008B;stroke-width:0.5;" x1="2481" x2="2682.2148" y1="372.0938" y2="372.0938"/><text fill="#000000" font-family="sans-serif" font-size="14" lengthAdjust="spacing" textLength="125.918" x="2486" y="389.0889">+callEmergency()</text></g><!--reverse link User to RegularUser--><g id="link_User_RegularUser"><path d="M1962.9836,155.3155 C1837.3636,191.2355 1615.07,254.7869 1447.6,302.6669 " fill="none" id="User-backto-RegularUser" style="stroke:#00008B;stroke-width:1.0;"/><polygon fill="none" points="1980.29,150.3669,1961.3341,149.5467,1964.6331,161.0843,1980.29,150.3669" style="stroke:#00008B;stroke-width:1.0;"/></g><!--reverse link User to AdminUser--><g id="link_User_AdminUser"><path d="M2097.1645,223.449 C2108.5245,257.249 2115.64,278.3869 2125.47,307.6269 " fill="none" id="User-backto-AdminUser" style="stroke:#00008B;stroke-width:1.0;"/><polygon fill="none" points="2091.43,206.3869,2091.4771,225.3605,2102.8519,221.5375,2091.43,206.3869" style="stroke:#00008B;stroke-width:1.0;"/></g><!--reverse link Call to ConferenceCall--><g id="link_Call_ConferenceCall"><path d="M1272.5474,909.8649 C1022.5274,954.2749 485.31,1049.7069 242.32,1092.8669 " fill="none" id="Call-backto-ConferenceCall" style="stroke:#00008B;stroke-width:1.0;"/><polygon fill="none" points="1290.27,906.7169,1271.4981,903.9573,1273.5967,915.7724,1290.27,906.7169" style="stroke:#00008B;stroke-width:1.0;"/></g><!--link User to Contact--><g id="link_User_Contact"><path codeLine="137" d="M2148.76,192.5169 C2154.76,197.1869 2160.72,201.8169 2166.5,206.2969 C2202.89,234.4669 2243.28,265.3869 2277.82,291.7169 " fill="none" id="User-Contact" style="stroke:#00008B;stroke-width:1.0;"/><text fill="#000000" font-family="sans-serif" font-size="13" lengthAdjust="spacing" textLength="22.9785" x="2226.5" y="249.3638">has</text><text fill="#000000" font-family="sans-serif" font-size="13" lengthAdjust="spacing" textLength="8.271" x="2156.6305" y="194.905">1</text><text fill="#000000" font-family="sans-serif" font-size="13" lengthAdjust="spacing" textLength="23.0356" x="2246.3424" y="282.3485">0..*</text></g><!--link RegularUser to CallHistory--><g id="link_RegularUser_CallHistory"><path codeLine="138" d="M1079.07,420.2069 C1012.11,444.8269 936.48,474.7369 869.5,506.2969 C853.76,513.7169 837.47,522.1469 821.63,530.7769 " fill="none" id="RegularUser-CallHistory" style="stroke:#00008B;stroke-width:1.0;"/><text fill="#000000" font-family="sans-serif" font-size="13" lengthAdjust="spacing" textLength="22.9785" x="977.5" y="472.3638">has</text><text fill="#000000" font-family="sans-serif" font-size="13" lengthAdjust="spacing" textLength="8.271" x="1063.1163" y="419.661">1</text><text fill="#000000" font-family="sans-serif" font-size="13" lengthAdjust="spacing" textLength="8.271" x="824.8158" y="519.9474">1</text></g><!--link RegularUser to VoicemailBox--><g id="link_RegularUser_VoicemailBox"><path codeLine="139" d="M1079.49,384.9169 C936.15,409.1569 733.31,449.4669 561.5,506.2969 C540.53,513.2369 518.79,521.7769 497.81,530.7969 " fill="none" id="RegularUser-VoicemailBox" style="stroke:#00008B;stroke-width:1.0;"/><text fill="#000000" font-family="sans-serif" font-size="13" lengthAdjust="spacing" textLength="22.9785" x="713.5" y="472.3638">has</text><text fill="#000000" font-family="sans-serif" font-size="13" lengthAdjust="spacing" textLength="8.271" x="1062.9662" y="382.9487">1</text><text fill="#000000" font-family="sans-serif" font-size="13" lengthAdjust="spacing" textLength="8.271" x="504.1758" y="519.5184">1</text></g><!--link RegularUser to Call--><g id="link_RegularUser_Call"><path codeLine="140" d="M1447.55,385.7769 C1580.99,410.6369 1745.01,451.3369 1786.5,506.2969 C1834.16,569.4369 1827.15,616.4269 1786.5,684.2969 C1733.99,771.9569 1627.96,822.9869 1542.82,851.2269 " fill="none" id="RegularUser-Call" style="stroke:#00008B;stroke-width:1.0;"/><text fill="#000000" font-family="sans-serif" font-size="13" lengthAdjust="spacing" textLength="93.1011" x="1821.5" y="599.8638">participates in</text><text fill="#000000" font-family="sans-serif" font-size="13" lengthAdjust="spacing" textLength="8.271" x="1456.0664" y="383.8477">1</text><text fill="#000000" font-family="sans-serif" font-size="13" lengthAdjust="spacing" textLength="23.0356" x="1550.3643" y="846.1454">0..*</text></g><!--link Call to User--><g id="link_Call_User"><path codeLine="141" d="M1542.75,866.0869 C1658.37,844.5269 1825.91,795.2469 1923.5,684.2969 C2044.81,546.3769 1978.07,461.2669 2023.5,283.2969 C2029.88,258.3169 2036.93,231.1469 2043.37,206.5269 " fill="none" id="Call-User" style="stroke:#00008B;stroke-width:1.0;"/><text fill="#000000" font-family="sans-serif" font-size="13" lengthAdjust="spacing" textLength="53.5742" x="2005.5" y="472.3638">involves</text><text fill="#000000" font-family="sans-serif" font-size="13" lengthAdjust="spacing" textLength="8.271" x="1550.2945" y="877.6089">1</text><text fill="#000000" font-family="sans-serif" font-size="13" lengthAdjust="spacing" textLength="23.0356" x="2017.4632" y="226.4987">2..*</text></g><!--link ConferenceCall to User--><g id="link_ConferenceCall_User"><path codeLine="142" d="M117.9,1065.9869 C112.07,1019.6369 104.5,947.2869 104.5,884.2969 C104.5,355.2969 104.5,355.2969 104.5,355.2969 C104.5,163.4469 1605.12,132.0069 1980.28,127.1469 " fill="none" id="ConferenceCall-User" style="stroke:#00008B;stroke-width:1.0;"/><text fill="#000000" font-family="sans-serif" font-size="13" lengthAdjust="spacing" textLength="53.5742" x="105.5" y="599.8638">involves</text><text fill="#000000" font-family="sans-serif" font-size="13" lengthAdjust="spacing" textLength="8.271" x="108.4067" y="1055.1522">1</text><text fill="#000000" font-family="sans-serif" font-size="13" lengthAdjust="spacing" textLength="23.0356" x="1949.3526" y="123.7481">3..*</text></g><!--link RegularUser to Message--><g id="link_RegularUser_Message"><path codeLine="143" d="M1173.88,429.3669 C1143.79,453.6969 1110.11,481.0769 1079.5,506.2969 C1073.81,510.9869 1067.96,515.8269 1062.07,520.7169 " fill="none" id="RegularUser-Message" style="stroke:#00008B;stroke-width:1.0;"/><text fill="#000000" font-family="sans-serif" font-size="13" lengthAdjust="spacing" textLength="96.9795" x="1136.5" y="472.3638">sends/receives</text><text fill="#000000" font-family="sans-serif" font-size="13" lengthAdjust="spacing" textLength="8.271" x="1156.9472" y="449.1299">1</text><text fill="#000000" font-family="sans-serif" font-size="13" lengthAdjust="spacing" textLength="23.0356" x="1070.2671" y="510.9765">0..*</text></g><!--link RegularUser to CallForwarding--><g id="link_RegularUser_CallForwarding"><path codeLine="144" d="M1263.5,429.3669 C1263.5,458.7869 1263.5,492.7369 1263.5,522.1569 " fill="none" id="RegularUser-CallForwarding" style="stroke:#00008B;stroke-width:1.0;"/><text fill="#000000" font-family="sans-serif" font-size="13" lengthAdjust="spacing" textLength="68.1357" x="1264.5" y="472.3638">configures</text><text fill="#000000" font-family="sans-serif" font-size="13" lengthAdjust="spacing" textLength="8.271" x="1255.1091" y="449.1299">1</text><text fill="#000000" font-family="sans-serif" font-size="13" lengthAdjust="spacing" textLength="24.8066" x="1238.3392" y="511.3031">0..1</text></g><!--link RegularUser to DoNotDisturb--><g id="link_RegularUser_DoNotDisturb"><path codeLine="145" d="M1371.15,429.3669 C1411.23,456.1969 1456.93,486.7969 1498,514.2969 " fill="none" id="RegularUser-DoNotDisturb" style="stroke:#00008B;stroke-width:1.0;"/><text fill="#000000" font-family="sans-serif" font-size="13" lengthAdjust="spacing" textLength="26.6411" x="1441.5" y="472.3638">sets</text><text fill="#000000" font-family="sans-serif" font-size="13" lengthAdjust="spacing" textLength="8.271" x="1373.0195" y="449.1299">1</text><text fill="#000000" font-family="sans-serif" font-size="13" lengthAdjust="spacing" textLength="24.8066" x="1461.9184" y="503.2077">0..1</text></g><!--link VoicemailBox to VoicemailMessage--><g id="link_VoicemailBox_VoicemailMessage"><path codeLine="146" d="M369.5,660.1269 C369.5,704.5769 369.5,763.9269 369.5,810.1069 " fill="none" id="VoicemailBox-VoicemailMessage" style="stroke:#00008B;stroke-width:1.0;"/><text fill="#000000" font-family="sans-serif" font-size="13" lengthAdjust="spacing" textLength="55.0278" x="370.5" y="727.3638">contains</text><text fill="#000000" font-family="sans-serif" font-size="13" lengthAdjust="spacing" textLength="8.271" x="361.03" y="680.5366">1</text><text fill="#000000" font-family="sans-serif" font-size="13" lengthAdjust="spacing" textLength="23.0356" x="345.3752" y="799.2482">0..*</text></g><!--link CallHistory to Call--><g id="link_CallHistory_Call"><path codeLine="147" d="M821.54,660.0269 C837.39,668.6269 853.71,676.9969 869.5,684.2969 C1009.86,749.2169 1178.01,807.3169 1290.49,843.5269 " fill="none" id="CallHistory-Call" style="stroke:#00008B;stroke-width:1.0;"/><text fill="#000000" font-family="sans-serif" font-size="13" lengthAdjust="spacing" textLength="48.8135" x="973.5" y="727.3638">records</text><text fill="#000000" font-family="sans-serif" font-size="13" lengthAdjust="spacing" textLength="8.271" x="825.3546" y="680.425">1</text><text fill="#000000" font-family="sans-serif" font-size="13" lengthAdjust="spacing" textLength="23.0356" x="1259.5479" y="837.8775">0..*</text></g><!--link User to EmergencyService--><g id="link_User_EmergencyService"><path codeLine="148" d="M2148.78,196.4369 C2154.62,200.0169 2160.55,203.3469 2166.5,206.2969 C2227.41,236.4569 2399.88,256.8769 2462.5,283.2969 C2483.3,292.0769 2504.78,304.0469 2523.67,315.7069 " fill="none" id="User-EmergencyService" style="stroke:#00008B;stroke-width:1.0;"/><text fill="#000000" font-family="sans-serif" font-size="13" lengthAdjust="spacing" textLength="58.5762" x="2343.5" y="249.3638">accesses</text><text fill="#000000" font-family="sans-serif" font-size="13" lengthAdjust="spacing" textLength="8.271" x="2156.6522" y="215.5101">1</text><text fill="#000000" font-family="sans-serif" font-size="13" lengthAdjust="spacing" textLength="8.271" x="2505.4341" y="304.8535">1</text></g><!--SRC=[hLPBZzis4BxhLn1xSfCuJTARK0IGBIzYm742sysru4gpCc6A54ZAphReV- -GecHIVc0FyK6cXZFyldbI-i14GnMjIS6frfanYZsr1fQ555ls3v0FYOvLoBy9mT-C5eTAoLQKSycb8YjMxSsCj-1sCwNagTl8gJeCyfbK9QZHndz9OfZXG7R0eTbB0NWQFhAcuQoWXab1fcJkm7D6AwII9FH96qKBuqdzfK5vPjCMryiy9LlqHLITJD0QOea3MhVr4wXu0shAU2HwosN5nEItuKMsfdzhcv8Q-AxaC-E0GdIcOxI1gkLKEMBmqu0eOvOOO8FyLqoRbDZdd_DEyhaxkAO7c5FE9run9NxV0oieW1sz2Zwi6_PylwqHy2jeJIkOe2fh68Zp6U-8FTL9EZ-zLR67ul13ii85eVVnoE1aSRuWIwbUGY-picRYbe_eWq3y6UCS8VhJAX2WC6ORQAGokXTtkjiNRQ3UWZ5eeKCaptmKlb-RvowPEHZSYS7H-m4PrsFOC06T98ZvMQWDLMR7BCKSWUpASn7bDN7PAbV-ALaACnnXMfqwHbktxgWpmGn3OrSFFgHuQlYwbpnwLw3REZB0ZXBw6HlKoWISDh4JBY0WsZf0zr79vhlbZuLRVbl__UNRAdVhnJfVTAl7RBd2PPXE109HE093zOI1ng5Z61AWmcZV8fQ5xmzQbj_F2XFRz543AAZb4Mwf33o6Of_9dpsmF8dB2L9tpTGp6UnyatbM7EWH-huBgoBekAmjcNp4SU6PDfo-z2OUvGpkTKeSZGRkQ5qwv9LxfoviRbNk9SzERh0iiVhgPbIbZlyauZbk7JyuxWreowEFhJKvPtcOS5tH3rF4s3SzmRbhi68LmoUZANcCtYDQmqbN0_UwUDcv-efE7utN-n4ScjfJ2FlQufr7f3faUWEqd9nRCRBnvBUBzSujyiKAstBZUt2poF8uCOzIdQWgaU6zt3ntMZjvROmodHK6Bw8KBtU9vIzyugoGkbBm6HXBkc7h6NGdsvaJOmJvoULQcXpherLFzzXU9pJLUBULBRU1KfYN8FX-Oo7AGFng1xRUVABF1xyZq1yMEB2eGU7bLxniGHsnINide9TV2UzRMww3OPTsTyC-V7mWqobv-F3-_Pk7uN9CoPxg9FpqwFNmB-p4kuhHJBojwQ7jn4x9CAmDQC94uiIzvYUdwOnJt3nAVWITZAw0NlcFgygt2VHzcnBRA_ft_s5qqyH78YZzrCxcPrQrwgvLL80MpUWa2bNCws8GEnZyj10w2LDnDPpe17ugwsISceiQIWaj2WG0_Jy0]--></g></svg>