<svg xmlns="http://www.w3.org/2000/svg" xmlns:xlink="http://www.w3.org/1999/xlink" contentStyleType="text/css" height="556px" preserveAspectRatio="none" style="width:1920px;height:556px;background:#FFFFFF;" version="1.1" viewBox="0 0 1920 556" width="1920px" zoomAndPan="magnify"><defs/><g><text fill="#000000" font-family="sans-serif" font-size="14" font-weight="bold" lengthAdjust="spacing" textLength="392.1367" x="757.0459" y="22.9951">Telephone Line Application - Component Diagram</text><!--cluster User Interface--><g id="cluster_User Interface"><path d="M146.9971,43.2969 L260.5713,43.2969 A3.75,3.75 0 0 1 263.0713,45.7969 L270.0713,65.5938 L439.9971,65.5938 A2.5,2.5 0 0 1 442.4971,68.0938 L442.4971,135.7969 A2.5,2.5 0 0 1 439.9971,138.2969 L146.9971,138.2969 A2.5,2.5 0 0 1 144.4971,135.7969 L144.4971,45.7969 A2.5,2.5 0 0 1 146.9971,43.2969 " fill="none" style="stroke:#000000;stroke-width:1.5;"/><line style="stroke:#000000;stroke-width:1.5;" x1="144.4971" x2="270.0713" y1="65.5938" y2="65.5938"/><text fill="#000000" font-family="sans-serif" font-size="14" font-weight="bold" lengthAdjust="spacing" textLength="112.5742" x="148.4971" y="58.292">User Interface</text></g><!--cluster Core Application--><g id="cluster_Core Application"><path d="M178.9971,171.2969 L310.4609,171.2969 A3.75,3.75 0 0 1 312.9609,173.7969 L319.9609,193.5938 L1611.9971,193.5938 A2.5,2.5 0 0 1 1614.4971,196.0938 L1614.4971,263.7969 A2.5,2.5 0 0 1 1611.9971,266.2969 L178.9971,266.2969 A2.5,2.5 0 0 1 176.4971,263.7969 L176.4971,173.7969 A2.5,2.5 0 0 1 178.9971,171.2969 " fill="none" style="stroke:#000000;stroke-width:1.5;"/><line style="stroke:#000000;stroke-width:1.5;" x1="176.4971" x2="319.9609" y1="193.5938" y2="193.5938"/><text fill="#000000" font-family="sans-serif" font-size="14" font-weight="bold" lengthAdjust="spacing" textLength="130.4639" x="180.4971" y="186.292">Core Application</text></g><!--cluster External Systems--><g id="cluster_External Systems"><path d="M56.9971,320.7969 L195.4199,320.7969 A3.75,3.75 0 0 1 197.9199,323.2969 L204.9199,343.0938 L547.9971,343.0938 A2.5,2.5 0 0 1 550.4971,345.5938 L550.4971,413.2969 A2.5,2.5 0 0 1 547.9971,415.7969 L56.9971,415.7969 A2.5,2.5 0 0 1 54.4971,413.2969 L54.4971,323.2969 A2.5,2.5 0 0 1 56.9971,320.7969 " fill="none" style="stroke:#000000;stroke-width:1.5;"/><line style="stroke:#000000;stroke-width:1.5;" x1="54.4971" x2="204.9199" y1="343.0938" y2="343.0938"/><text fill="#000000" font-family="sans-serif" font-size="14" font-weight="bold" lengthAdjust="spacing" textLength="137.4229" x="58.4971" y="335.792">External Systems</text></g><!--cluster Data Storage--><g id="cluster_Data Storage"><path d="M576.9971,320.2969 L682.3408,320.2969 A3.75,3.75 0 0 1 684.8408,322.7969 L691.8408,342.5938 L1192.9971,342.5938 A2.5,2.5 0 0 1 1195.4971,345.0938 L1195.4971,413.7969 A2.5,2.5 0 0 1 1192.9971,416.2969 L576.9971,416.2969 A2.5,2.5 0 0 1 574.4971,413.7969 L574.4971,322.7969 A2.5,2.5 0 0 1 576.9971,320.2969 " fill="none" style="stroke:#000000;stroke-width:1.5;"/><line style="stroke:#000000;stroke-width:1.5;" x1="574.4971" x2="691.8408" y1="342.5938" y2="342.5938"/><text fill="#000000" font-family="sans-serif" font-size="14" font-weight="bold" lengthAdjust="spacing" textLength="104.3438" x="578.4971" y="335.292">Data Storage</text></g><!--cluster Security--><g id="cluster_Security"><path d="M1221.9971,320.7969 L1288.3623,320.7969 A3.75,3.75 0 0 1 1290.8623,323.2969 L1297.8623,343.0938 L1424.9971,343.0938 A2.5,2.5 0 0 1 1427.4971,345.5938 L1427.4971,541.7969 A2.5,2.5 0 0 1 1424.9971,544.2969 L1221.9971,544.2969 A2.5,2.5 0 0 1 1219.4971,541.7969 L1219.4971,323.2969 A2.5,2.5 0 0 1 1221.9971,320.7969 " fill="none" style="stroke:#000000;stroke-width:1.5;"/><line style="stroke:#000000;stroke-width:1.5;" x1="1219.4971" x2="1297.8623" y1="343.0938" y2="343.0938"/><text fill="#000000" font-family="sans-serif" font-size="14" font-weight="bold" lengthAdjust="spacing" textLength="65.3652" x="1223.4971" y="335.792">Security</text></g><!--cluster Network Services--><g id="cluster_Network Services"><path d="M1503.9971,320.7969 L1643.0762,320.7969 A3.75,3.75 0 0 1 1645.5762,323.2969 L1652.5762,343.0938 L1777.9971,343.0938 A2.5,2.5 0 0 1 1780.4971,345.5938 L1780.4971,413.2969 A2.5,2.5 0 0 1 1777.9971,415.7969 L1503.9971,415.7969 A2.5,2.5 0 0 1 1501.4971,413.2969 L1501.4971,323.2969 A2.5,2.5 0 0 1 1503.9971,320.7969 " fill="none" style="stroke:#000000;stroke-width:1.5;"/><line style="stroke:#000000;stroke-width:1.5;" x1="1501.4971" x2="1652.5762" y1="343.0938" y2="343.0938"/><text fill="#000000" font-family="sans-serif" font-size="14" font-weight="bold" lengthAdjust="spacing" textLength="138.0791" x="1505.4971" y="335.792">Network Services</text></g><!--cluster Admin Tools--><g id="cluster_Admin Tools"><path d="M1640.9971,43.2969 L1738.999,43.2969 A3.75,3.75 0 0 1 1741.499,45.7969 L1748.499,65.5938 L1815.9971,65.5938 A2.5,2.5 0 0 1 1818.4971,68.0938 L1818.4971,263.7969 A2.5,2.5 0 0 1 1815.9971,266.2969 L1640.9971,266.2969 A2.5,2.5 0 0 1 1638.4971,263.7969 L1638.4971,45.7969 A2.5,2.5 0 0 1 1640.9971,43.2969 " fill="none" style="stroke:#000000;stroke-width:1.5;"/><line style="stroke:#000000;stroke-width:1.5;" x1="1638.4971" x2="1748.499" y1="65.5938" y2="65.5938"/><text fill="#000000" font-family="sans-serif" font-size="14" font-weight="bold" lengthAdjust="spacing" textLength="97.002" x="1642.4971" y="58.292">Admin Tools</text></g><!--cluster Public Telephone Network--><g id="cluster_Public Telephone Network"><path d="M1645.9336,459.2114 C1650.737,451.7396 1655.635,448.9545 1662.4204,457.1219 C1666.4996,451.4555 1671.7669,452.1559 1675.5105,457.5202 C1678.6872,449.0104 1686.1311,447.9292 1692.2764,454.1389 C1695.0135,448.6861 1700.566,446.3678 1704.6328,452.7507 C1709.9978,444.2053 1716.1884,444.2107 1721.3737,452.9251 C1723.5118,445.35 1729.1956,443.8181 1734.5001,449.8766 C1738.7136,442.9517 1745.1557,442.9247 1749.1811,450.0729 C1754.1365,441.6682 1762.0005,442.9327 1765.5272,451.4528 C1771.0952,445.8937 1775.8568,445.4563 1780.2563,452.788 C1785.4105,447.4367 1790.6701,447.7434 1794.1699,454.6638 C1797.6421,447.8632 1803.9256,448.5893 1807.8322,454.1849 C1813.2833,447.9506 1819.6124,448.2523 1824.0684,455.3928 C1829.8435,447.9369 1836.4942,451.0008 1839.2846,458.4414 C1843.893,450.7496 1850.8495,452.6891 1854.2171,459.7014 C1862.5328,465.1212 1863.0245,471.3381 1855.698,478.0222 C1865.3808,485.0146 1866.5466,492.1721 1855.7964,499.2592 C1865.0148,505.8589 1864.5608,512.7508 1854.8931,518.462 C1863.7519,524.7302 1862.1743,533.0489 1853.5729,538.146 C1848.9088,545.4963 1844.3041,544.5407 1839.3199,538.4863 C1834.3367,546.2718 1826.8005,546.4285 1822.4372,537.8469 C1820.3161,546.0853 1813.0638,546.0525 1808.2863,540.5906 C1803.8859,547.1339 1797.5154,547.0367 1793.353,540.3225 C1788.8767,548.3118 1782.7413,547.8858 1778.0605,540.5262 C1773.624,547.0858 1768.9901,546.9451 1764.7448,540.3329 C1761.2818,547.7751 1754.3432,549.4785 1749.6644,541.5237 C1744.7887,548.8508 1737.3152,548.0132 1733.9225,540.0018 C1731.3812,546.8901 1725.0992,547.7221 1721.0575,541.4708 C1715.4559,549.7099 1708.7982,547.8461 1704.4389,540.1734 C1699.8646,546.4151 1694.929,546.9768 1690.542,539.9768 C1684.5901,546.1603 1678.7498,546.7316 1675.2273,537.5546 C1672.035,543.7912 1667.1997,543.8116 1662.591,539.2052 C1657.5979,546.1789 1650.0612,546.0348 1647.0504,537.2502 C1636.2022,531.542 1637.6369,524.4045 1646.1773,517.8248 C1637.3245,511.7386 1638.0391,505.9746 1645.3039,499.1352 C1635.7567,493.354 1635.7002,484.9262 1645.2251,479.0702 C1636.812,473.6234 1635.7504,463.9947 1645.9336,459.2114 " fill="none" style="stroke:#181818;stroke-width:1.0;"/><text fill="#000000" font-family="sans-serif" font-size="14" font-weight="bold" lengthAdjust="spacing" textLength="206.9717" x="1645.0112" y="475.292">Public Telephone Network</text></g><!--entity Web Interface--><g id="elem_Web Interface"><rect fill="#87CEFA" height="43.9688" rx="2.5" ry="2.5" style="stroke:#00008B;stroke-width:0.5;" width="124.4043" x="302.4971" y="78.2969"/><rect fill="#87CEFA" height="10" style="stroke:#00008B;stroke-width:0.5;" width="15" x="406.9014" y="83.2969"/><rect fill="#87CEFA" height="2" style="stroke:#00008B;stroke-width:0.5;" width="4" x="404.9014" y="85.2969"/><rect fill="#87CEFA" height="2" style="stroke:#00008B;stroke-width:0.5;" width="4" x="404.9014" y="89.2969"/><text fill="#000000" font-family="Arial" font-size="12" lengthAdjust="spacing" textLength="84.4043" x="317.4971" y="109.4355">Web Interface</text></g><!--entity Mobile App--><g id="elem_Mobile App"><rect fill="#87CEFA" height="43.9688" rx="2.5" ry="2.5" style="stroke:#00008B;stroke-width:0.5;" width="106.6211" x="159.9971" y="78.2969"/><rect fill="#87CEFA" height="10" style="stroke:#00008B;stroke-width:0.5;" width="15" x="246.6182" y="83.2969"/><rect fill="#87CEFA" height="2" style="stroke:#00008B;stroke-width:0.5;" width="4" x="244.6182" y="85.2969"/><rect fill="#87CEFA" height="2" style="stroke:#00008B;stroke-width:0.5;" width="4" x="244.6182" y="89.2969"/><text fill="#000000" font-family="Arial" font-size="12" lengthAdjust="spacing" textLength="66.6211" x="174.9971" y="109.4355">Mobile App</text></g><!--entity User Management--><g id="elem_User Management"><rect fill="#87CEFA" height="43.9688" rx="2.5" ry="2.5" style="stroke:#00008B;stroke-width:0.5;" width="150.2148" x="379.4971" y="206.2969"/><rect fill="#87CEFA" height="10" style="stroke:#00008B;stroke-width:0.5;" width="15" x="509.7119" y="211.2969"/><rect fill="#87CEFA" height="2" style="stroke:#00008B;stroke-width:0.5;" width="4" x="507.7119" y="213.2969"/><rect fill="#87CEFA" height="2" style="stroke:#00008B;stroke-width:0.5;" width="4" x="507.7119" y="217.2969"/><text fill="#000000" font-family="Arial" font-size="12" lengthAdjust="spacing" textLength="110.2148" x="394.4971" y="237.4355">User Management</text></g><!--entity Call Management--><g id="elem_Call Management"><rect fill="#87CEFA" height="43.9688" rx="2.5" ry="2.5" style="stroke:#00008B;stroke-width:0.5;" width="145.2637" x="1255.9971" y="206.2969"/><rect fill="#87CEFA" height="10" style="stroke:#00008B;stroke-width:0.5;" width="15" x="1381.2607" y="211.2969"/><rect fill="#87CEFA" height="2" style="stroke:#00008B;stroke-width:0.5;" width="4" x="1379.2607" y="213.2969"/><rect fill="#87CEFA" height="2" style="stroke:#00008B;stroke-width:0.5;" width="4" x="1379.2607" y="217.2969"/><text fill="#000000" font-family="Arial" font-size="12" lengthAdjust="spacing" textLength="105.2637" x="1270.9971" y="237.4355">Call Management</text></g><!--entity Messaging System--><g id="elem_Messaging System"><rect fill="#87CEFA" height="43.9688" rx="2.5" ry="2.5" style="stroke:#00008B;stroke-width:0.5;" width="152.3301" x="192.4971" y="206.2969"/><rect fill="#87CEFA" height="10" style="stroke:#00008B;stroke-width:0.5;" width="15" x="324.8271" y="211.2969"/><rect fill="#87CEFA" height="2" style="stroke:#00008B;stroke-width:0.5;" width="4" x="322.8271" y="213.2969"/><rect fill="#87CEFA" height="2" style="stroke:#00008B;stroke-width:0.5;" width="4" x="322.8271" y="217.2969"/><text fill="#000000" font-family="Arial" font-size="12" lengthAdjust="spacing" textLength="112.3301" x="207.4971" y="237.4355">Messaging System</text></g><!--entity Contact Management--><g id="elem_Contact Management"><rect fill="#87CEFA" height="43.9688" rx="2.5" ry="2.5" style="stroke:#00008B;stroke-width:0.5;" width="169.5508" x="724.4971" y="206.2969"/><rect fill="#87CEFA" height="10" style="stroke:#00008B;stroke-width:0.5;" width="15" x="874.0479" y="211.2969"/><rect fill="#87CEFA" height="2" style="stroke:#00008B;stroke-width:0.5;" width="4" x="872.0479" y="213.2969"/><rect fill="#87CEFA" height="2" style="stroke:#00008B;stroke-width:0.5;" width="4" x="872.0479" y="217.2969"/><text fill="#000000" font-family="Arial" font-size="12" lengthAdjust="spacing" textLength="129.5508" x="739.4971" y="237.4355">Contact Management</text></g><!--entity Voicemail System--><g id="elem_Voicemail System"><rect fill="#87CEFA" height="43.9688" rx="2.5" ry="2.5" style="stroke:#00008B;stroke-width:0.5;" width="147.1387" x="929.9971" y="206.2969"/><rect fill="#87CEFA" height="10" style="stroke:#00008B;stroke-width:0.5;" width="15" x="1057.1357" y="211.2969"/><rect fill="#87CEFA" height="2" style="stroke:#00008B;stroke-width:0.5;" width="4" x="1055.1357" y="213.2969"/><rect fill="#87CEFA" height="2" style="stroke:#00008B;stroke-width:0.5;" width="4" x="1055.1357" y="217.2969"/><text fill="#000000" font-family="Arial" font-size="12" lengthAdjust="spacing" textLength="107.1387" x="944.9971" y="237.4355">Voicemail System</text></g><!--entity Call History--><g id="elem_Call History"><rect fill="#87CEFA" height="43.9688" rx="2.5" ry="2.5" style="stroke:#00008B;stroke-width:0.5;" width="108.9063" x="1111.9971" y="206.2969"/><rect fill="#87CEFA" height="10" style="stroke:#00008B;stroke-width:0.5;" width="15" x="1200.9033" y="211.2969"/><rect fill="#87CEFA" height="2" style="stroke:#00008B;stroke-width:0.5;" width="4" x="1198.9033" y="213.2969"/><rect fill="#87CEFA" height="2" style="stroke:#00008B;stroke-width:0.5;" width="4" x="1198.9033" y="217.2969"/><text fill="#000000" font-family="Arial" font-size="12" lengthAdjust="spacing" textLength="68.9063" x="1126.9971" y="237.4355">Call History</text></g><!--entity Billing System--><g id="elem_Billing System"><rect fill="#87CEFA" height="43.9688" rx="2.5" ry="2.5" style="stroke:#00008B;stroke-width:0.5;" width="125.3535" x="563.9971" y="206.2969"/><rect fill="#87CEFA" height="10" style="stroke:#00008B;stroke-width:0.5;" width="15" x="669.3506" y="211.2969"/><rect fill="#87CEFA" height="2" style="stroke:#00008B;stroke-width:0.5;" width="4" x="667.3506" y="213.2969"/><rect fill="#87CEFA" height="2" style="stroke:#00008B;stroke-width:0.5;" width="4" x="667.3506" y="217.2969"/><text fill="#000000" font-family="Arial" font-size="12" lengthAdjust="spacing" textLength="85.3535" x="578.9971" y="237.4355">Billing System</text></g><!--entity Emergency Services--><g id="elem_Emergency Services"><rect fill="#87CEFA" height="43.9688" rx="2.5" ry="2.5" style="stroke:#00008B;stroke-width:0.5;" width="162.3086" x="1436.4971" y="206.2969"/><rect fill="#87CEFA" height="10" style="stroke:#00008B;stroke-width:0.5;" width="15" x="1578.8057" y="211.2969"/><rect fill="#87CEFA" height="2" style="stroke:#00008B;stroke-width:0.5;" width="4" x="1576.8057" y="213.2969"/><rect fill="#87CEFA" height="2" style="stroke:#00008B;stroke-width:0.5;" width="4" x="1576.8057" y="217.2969"/><text fill="#000000" font-family="Arial" font-size="12" lengthAdjust="spacing" textLength="122.3086" x="1451.4971" y="237.4355">Emergency Services</text></g><!--entity Payment Gateway--><g id="elem_Payment Gateway"><rect fill="#87CEFA" height="43.9688" rx="2.5" ry="2.5" style="stroke:#00008B;stroke-width:0.5;" width="149.8984" x="384.4971" y="355.7969"/><rect fill="#87CEFA" height="10" style="stroke:#00008B;stroke-width:0.5;" width="15" x="514.3955" y="360.7969"/><rect fill="#87CEFA" height="2" style="stroke:#00008B;stroke-width:0.5;" width="4" x="512.3955" y="362.7969"/><rect fill="#87CEFA" height="2" style="stroke:#00008B;stroke-width:0.5;" width="4" x="512.3955" y="366.7969"/><text fill="#000000" font-family="Arial" font-size="12" lengthAdjust="spacing" textLength="109.8984" x="399.4971" y="386.9355">Payment Gateway</text></g><!--entity SMS Gateway--><g id="elem_SMS Gateway"><rect fill="#87CEFA" height="43.9688" rx="2.5" ry="2.5" style="stroke:#00008B;stroke-width:0.5;" width="122.4121" x="70.4971" y="355.7969"/><rect fill="#87CEFA" height="10" style="stroke:#00008B;stroke-width:0.5;" width="15" x="172.9092" y="360.7969"/><rect fill="#87CEFA" height="2" style="stroke:#00008B;stroke-width:0.5;" width="4" x="170.9092" y="362.7969"/><rect fill="#87CEFA" height="2" style="stroke:#00008B;stroke-width:0.5;" width="4" x="170.9092" y="366.7969"/><text fill="#000000" font-family="Arial" font-size="12" lengthAdjust="spacing" textLength="82.4121" x="85.4971" y="386.9355">SMS Gateway</text></g><!--entity Email Service--><g id="elem_Email Service"><rect fill="#87CEFA" height="43.9688" rx="2.5" ry="2.5" style="stroke:#00008B;stroke-width:0.5;" width="121.457" x="227.9971" y="355.7969"/><rect fill="#87CEFA" height="10" style="stroke:#00008B;stroke-width:0.5;" width="15" x="329.4541" y="360.7969"/><rect fill="#87CEFA" height="2" style="stroke:#00008B;stroke-width:0.5;" width="4" x="327.4541" y="362.7969"/><rect fill="#87CEFA" height="2" style="stroke:#00008B;stroke-width:0.5;" width="4" x="327.4541" y="366.7969"/><text fill="#000000" font-family="Arial" font-size="12" lengthAdjust="spacing" textLength="81.457" x="242.9971" y="386.9355">Email Service</text></g><!--entity User Database--><g id="elem_User Database"><path d="M748.9971,365.2969 C748.9971,355.2969 810.5776,355.2969 810.5776,355.2969 C810.5776,355.2969 872.1582,355.2969 872.1582,365.2969 L872.1582,390.5938 C872.1582,400.5938 810.5776,400.5938 810.5776,400.5938 C810.5776,400.5938 748.9971,400.5938 748.9971,390.5938 L748.9971,365.2969 " fill="#F1F1F1" style="stroke:#181818;stroke-width:0.5;"/><path d="M748.9971,365.2969 C748.9971,375.2969 810.5776,375.2969 810.5776,375.2969 C810.5776,375.2969 872.1582,375.2969 872.1582,365.2969 " fill="none" style="stroke:#181818;stroke-width:0.5;"/><text fill="#000000" font-family="sans-serif" font-size="14" lengthAdjust="spacing" textLength="103.1611" x="758.9971" y="392.292">User Database</text></g><!--entity Call Records--><g id="elem_Call Records"><path d="M1072.9971,365.2969 C1072.9971,355.2969 1126.5591,355.2969 1126.5591,355.2969 C1126.5591,355.2969 1180.1211,355.2969 1180.1211,365.2969 L1180.1211,390.5938 C1180.1211,400.5938 1126.5591,400.5938 1126.5591,400.5938 C1126.5591,400.5938 1072.9971,400.5938 1072.9971,390.5938 L1072.9971,365.2969 " fill="#F1F1F1" style="stroke:#181818;stroke-width:0.5;"/><path d="M1072.9971,365.2969 C1072.9971,375.2969 1126.5591,375.2969 1126.5591,375.2969 C1126.5591,375.2969 1180.1211,375.2969 1180.1211,365.2969 " fill="none" style="stroke:#181818;stroke-width:0.5;"/><text fill="#000000" font-family="sans-serif" font-size="14" lengthAdjust="spacing" textLength="87.124" x="1082.9971" y="392.292">Call Records</text></g><!--entity Message Store--><g id="elem_Message Store"><path d="M590.9971,365.2969 C590.9971,355.2969 652.5571,355.2969 652.5571,355.2969 C652.5571,355.2969 714.1172,355.2969 714.1172,365.2969 L714.1172,390.5938 C714.1172,400.5938 652.5571,400.5938 652.5571,400.5938 C652.5571,400.5938 590.9971,400.5938 590.9971,390.5938 L590.9971,365.2969 " fill="#F1F1F1" style="stroke:#181818;stroke-width:0.5;"/><path d="M590.9971,365.2969 C590.9971,375.2969 652.5571,375.2969 652.5571,375.2969 C652.5571,375.2969 714.1172,375.2969 714.1172,365.2969 " fill="none" style="stroke:#181818;stroke-width:0.5;"/><text fill="#000000" font-family="sans-serif" font-size="14" lengthAdjust="spacing" textLength="103.1201" x="600.9971" y="392.292">Message Store</text></g><!--entity Voicemail Store--><g id="elem_Voicemail Store"><path d="M907.4971,365.2969 C907.4971,355.2969 972.5469,355.2969 972.5469,355.2969 C972.5469,355.2969 1037.5967,355.2969 1037.5967,365.2969 L1037.5967,390.5938 C1037.5967,400.5938 972.5469,400.5938 972.5469,400.5938 C972.5469,400.5938 907.4971,400.5938 907.4971,390.5938 L907.4971,365.2969 " fill="#F1F1F1" style="stroke:#181818;stroke-width:0.5;"/><path d="M907.4971,365.2969 C907.4971,375.2969 972.5469,375.2969 972.5469,375.2969 C972.5469,375.2969 1037.5967,375.2969 1037.5967,365.2969 " fill="none" style="stroke:#181818;stroke-width:0.5;"/><text fill="#000000" font-family="sans-serif" font-size="14" lengthAdjust="spacing" textLength="110.0996" x="917.4971" y="392.292">Voicemail Store</text></g><!--entity Authentication Service--><g id="elem_Authentication Service"><rect fill="#87CEFA" height="43.9688" rx="2.5" ry="2.5" style="stroke:#00008B;stroke-width:0.5;" width="176.2539" x="1235.4971" y="355.7969"/><rect fill="#87CEFA" height="10" style="stroke:#00008B;stroke-width:0.5;" width="15" x="1391.751" y="360.7969"/><rect fill="#87CEFA" height="2" style="stroke:#00008B;stroke-width:0.5;" width="4" x="1389.751" y="362.7969"/><rect fill="#87CEFA" height="2" style="stroke:#00008B;stroke-width:0.5;" width="4" x="1389.751" y="366.7969"/><text fill="#000000" font-family="Arial" font-size="12" lengthAdjust="spacing" textLength="136.2539" x="1250.4971" y="386.9355">Authentication Service</text></g><!--entity Encryption Module--><g id="elem_Encryption Module"><rect fill="#87CEFA" height="43.9688" rx="2.5" ry="2.5" style="stroke:#00008B;stroke-width:0.5;" width="151.873" x="1247.4971" y="484.2969"/><rect fill="#87CEFA" height="10" style="stroke:#00008B;stroke-width:0.5;" width="15" x="1379.3701" y="489.2969"/><rect fill="#87CEFA" height="2" style="stroke:#00008B;stroke-width:0.5;" width="4" x="1377.3701" y="491.2969"/><rect fill="#87CEFA" height="2" style="stroke:#00008B;stroke-width:0.5;" width="4" x="1377.3701" y="495.2969"/><text fill="#000000" font-family="Arial" font-size="12" lengthAdjust="spacing" textLength="111.873" x="1262.4971" y="515.4355">Encryption Module</text></g><!--entity VoIP Server--><g id="elem_VoIP Server"><rect fill="#87CEFA" height="43.9688" rx="2.5" ry="2.5" style="stroke:#00008B;stroke-width:0.5;" width="109.4922" x="1517.9971" y="355.7969"/><rect fill="#87CEFA" height="10" style="stroke:#00008B;stroke-width:0.5;" width="15" x="1607.4893" y="360.7969"/><rect fill="#87CEFA" height="2" style="stroke:#00008B;stroke-width:0.5;" width="4" x="1605.4893" y="362.7969"/><rect fill="#87CEFA" height="2" style="stroke:#00008B;stroke-width:0.5;" width="4" x="1605.4893" y="366.7969"/><text fill="#000000" font-family="Arial" font-size="12" lengthAdjust="spacing" textLength="69.4922" x="1532.9971" y="386.9355">VoIP Server</text></g><!--entity SIP Server--><g id="elem_SIP Server"><rect fill="#87CEFA" height="43.9688" rx="2.5" ry="2.5" style="stroke:#00008B;stroke-width:0.5;" width="101.5586" x="1662.4971" y="355.7969"/><rect fill="#87CEFA" height="10" style="stroke:#00008B;stroke-width:0.5;" width="15" x="1744.0557" y="360.7969"/><rect fill="#87CEFA" height="2" style="stroke:#00008B;stroke-width:0.5;" width="4" x="1742.0557" y="362.7969"/><rect fill="#87CEFA" height="2" style="stroke:#00008B;stroke-width:0.5;" width="4" x="1742.0557" y="366.7969"/><text fill="#000000" font-family="Arial" font-size="12" lengthAdjust="spacing" textLength="61.5586" x="1677.4971" y="386.9355">SIP Server</text></g><!--entity Admin Dashboard--><g id="elem_Admin Dashboard"><rect fill="#87CEFA" height="43.9688" rx="2.5" ry="2.5" style="stroke:#00008B;stroke-width:0.5;" width="147.584" x="1654.4971" y="78.2969"/><rect fill="#87CEFA" height="10" style="stroke:#00008B;stroke-width:0.5;" width="15" x="1782.0811" y="83.2969"/><rect fill="#87CEFA" height="2" style="stroke:#00008B;stroke-width:0.5;" width="4" x="1780.0811" y="85.2969"/><rect fill="#87CEFA" height="2" style="stroke:#00008B;stroke-width:0.5;" width="4" x="1780.0811" y="89.2969"/><text fill="#000000" font-family="Arial" font-size="12" lengthAdjust="spacing" textLength="107.584" x="1669.4971" y="109.4355">Admin Dashboard</text></g><!--entity Reporting Tools--><g id="elem_Reporting Tools"><rect fill="#87CEFA" height="43.9688" rx="2.5" ry="2.5" style="stroke:#00008B;stroke-width:0.5;" width="134.2891" x="1654.4971" y="206.2969"/><rect fill="#87CEFA" height="10" style="stroke:#00008B;stroke-width:0.5;" width="15" x="1768.7861" y="211.2969"/><rect fill="#87CEFA" height="2" style="stroke:#00008B;stroke-width:0.5;" width="4" x="1766.7861" y="213.2969"/><rect fill="#87CEFA" height="2" style="stroke:#00008B;stroke-width:0.5;" width="4" x="1766.7861" y="217.2969"/><text fill="#000000" font-family="Arial" font-size="12" lengthAdjust="spacing" textLength="94.2891" x="1669.4971" y="237.4355">Reporting Tools</text></g><!--entity PSTN Gateway--><g id="elem_PSTN Gateway"><rect fill="#87CEFA" height="43.9688" rx="2.5" ry="2.5" style="stroke:#00008B;stroke-width:0.5;" width="127.9844" x="1655.4971" y="484.2969"/><rect fill="#87CEFA" height="10" style="stroke:#00008B;stroke-width:0.5;" width="15" x="1763.4814" y="489.2969"/><rect fill="#87CEFA" height="2" style="stroke:#00008B;stroke-width:0.5;" width="4" x="1761.4814" y="491.2969"/><rect fill="#87CEFA" height="2" style="stroke:#00008B;stroke-width:0.5;" width="4" x="1761.4814" y="495.2969"/><text fill="#000000" font-family="Arial" font-size="12" lengthAdjust="spacing" textLength="87.9844" x="1670.4971" y="515.4355">PSTN Gateway</text></g><!--entity UI_API--><g id="elem_UI_API"><ellipse cx="87.4971" cy="228.2969" fill="#F1F1F1" rx="8" ry="8" style="stroke:#181818;stroke-width:0.5;"/><text fill="#000000" font-family="sans-serif" font-size="14" lengthAdjust="spacing" textLength="125.6377" x="24.6782" y="258.292">User Interface API</text></g><!--entity ADMIN_API--><g id="elem_ADMIN_API"><ellipse cx="1877.4971" cy="228.2969" fill="#F1F1F1" rx="8" ry="8" style="stroke:#181818;stroke-width:0.5;"/><text fill="#000000" font-family="sans-serif" font-size="14" lengthAdjust="spacing" textLength="71.4629" x="1841.7656" y="258.292">Admin API</text></g><!--entity TEL_API--><g id="elem_TEL_API"><ellipse cx="1563.4971" cy="506.2969" fill="#F1F1F1" rx="8" ry="8" style="stroke:#181818;stroke-width:0.5;"/><text fill="#000000" font-family="sans-serif" font-size="14" lengthAdjust="spacing" textLength="99.75" x="1513.6221" y="536.292">Telephony API</text></g><!--entity MSG_API--><g id="elem_MSG_API"><ellipse cx="56.4971" cy="506.2969" fill="#F1F1F1" rx="8" ry="8" style="stroke:#181818;stroke-width:0.5;"/><text fill="#000000" font-family="sans-serif" font-size="14" lengthAdjust="spacing" textLength="100.9941" x="6" y="536.292">Messaging API</text></g><!--entity DB_API--><g id="elem_DB_API"><ellipse cx="860.4971" cy="506.2969" fill="#F1F1F1" rx="8" ry="8" style="stroke:#181818;stroke-width:0.5;"/><text fill="#000000" font-family="sans-serif" font-size="14" lengthAdjust="spacing" textLength="93.3994" x="813.7974" y="536.292">Database API</text></g><!--link Web Interface to User Management--><g id="link_Web Interface_User Management"><path d="M379.5571,122.3869 C396.1771,145.6469 419.2581,177.9756 435.8981,201.2556 " fill="none" id="Web Interface-to-User Management" style="stroke:#00008B;stroke-width:1.0;"/><polygon fill="#00008B" points="439.3871,206.1369,437.4077,196.489,436.4796,202.0692,430.8994,201.141,439.3871,206.1369" style="stroke:#00008B;stroke-width:1.0;"/></g><!--link Mobile App to User Management--><g id="link_Mobile App_User Management"><path d="M242.3971,122.5269 C255.0871,130.9969 270.4871,140.1669 285.4971,146.2969 C317.9371,159.5569 330.3871,149.2469 362.4971,163.2969 C387.2771,174.1369 407.5811,188.3297 425.2511,202.4597 " fill="none" id="Mobile App-to-User Management" style="stroke:#00008B;stroke-width:1.0;"/><polygon fill="#00008B" points="429.9371,206.2069,425.4062,197.4621,426.0321,203.0842,420.41,203.7101,429.9371,206.2069" style="stroke:#00008B;stroke-width:1.0;"/></g><!--link User Management to Authentication Service--><g id="link_User Management_Authentication Service"><path d="M488.5171,250.4069 C505.3071,259.6369 526.2671,269.4469 546.4971,274.2969 C569.5971,279.8269 1384.8271,270.3769 1401.4971,287.2969 C1423.5571,309.6869 1396.7314,333.9652 1367.3314,352.5152 " fill="none" id="User Management-to-Authentication Service" style="stroke:#00008B;stroke-width:1.0;"/><polygon fill="#00008B" points="1362.2571,355.7169,1372.0031,354.2973,1366.4857,353.0488,1367.7342,347.5314,1362.2571,355.7169" style="stroke:#00008B;stroke-width:1.0;"/></g><!--link User Management to User Database--><g id="link_User Management_User Database"><path d="M490.9871,250.5069 C507.4471,259.1769 527.4371,268.5069 546.4971,274.2969 C587.6971,286.8069 600.3371,278.5669 642.4971,287.2969 C652.5571,289.3769 722.3871,307.5569 731.4971,312.2969 C753.0171,323.4869 769.7592,337.0639 784.7292,351.0939 " fill="none" id="User Management-to-User Database" style="stroke:#00008B;stroke-width:1.0;stroke-dasharray:7.0,7.0;"/><polygon fill="#00008B" points="789.1071,355.1969,785.2756,346.1239,785.4589,351.7777,779.805,351.961,789.1071,355.1969" style="stroke:#00008B;stroke-width:1.0;"/><text fill="#000000" font-family="sans-serif" font-size="13" lengthAdjust="spacing" textLength="80.1709" x="706.4971" y="300.3638">reads/writes</text></g><!--link Call Management to VoIP Server--><g id="link_Call Management_VoIP Server"><path d="M1365.1371,250.3269 C1381.3571,258.8569 1400.9271,268.1369 1419.4971,274.2969 C1449.9471,284.3969 1462.4271,271.7769 1490.4971,287.2969 C1520.1871,303.7169 1541.5757,329.9273 1555.8757,350.7973 " fill="none" id="Call Management-to-VoIP Server" style="stroke:#00008B;stroke-width:1.0;"/><polygon fill="#00008B" points="1559.2671,355.7469,1557.4797,346.0616,1556.4409,351.6222,1550.8802,350.5835,1559.2671,355.7469" style="stroke:#00008B;stroke-width:1.0;"/></g><!--link Call Management to SIP Server--><g id="link_Call Management_SIP Server"><path d="M1364.0971,250.3969 C1380.4471,259.1669 1400.4171,268.5969 1419.4971,274.2969 C1516.6771,303.3069 1554.5571,265.4469 1644.4971,312.2969 C1664.8571,322.9069 1679.6026,336.7109 1692.3926,351.1109 " fill="none" id="Call Management-to-SIP Server" style="stroke:#00008B;stroke-width:1.0;"/><polygon fill="#00008B" points="1696.3771,355.5969,1693.3911,346.2116,1693.0567,351.8585,1687.4097,351.5242,1696.3771,355.5969" style="stroke:#00008B;stroke-width:1.0;"/></g><!--link Call Management to Call Records--><g id="link_Call Management_Call Records"><path d="M1299.5571,250.4269 C1261.3771,278.3069 1199.3731,323.589 1160.8831,351.689 " fill="none" id="Call Management-to-Call Records" style="stroke:#00008B;stroke-width:1.0;stroke-dasharray:7.0,7.0;"/><polygon fill="#00008B" points="1156.0371,355.2269,1165.6646,353.1507,1160.0754,352.2787,1160.9475,346.6894,1156.0371,355.2269" style="stroke:#00008B;stroke-width:1.0;"/><text fill="#000000" font-family="sans-serif" font-size="13" lengthAdjust="spacing" textLength="39.457" x="1246.4971" y="300.3638">writes</text></g><!--link Messaging System to SMS Gateway--><g id="link_Messaging System_SMS Gateway"><path d="M248.8671,250.4269 C222.8271,278.4669 181.2007,323.291 155.1707,351.311 " fill="none" id="Messaging System-to-SMS Gateway" style="stroke:#00008B;stroke-width:1.0;"/><polygon fill="#00008B" points="151.0871,355.7069,160.1432,351.8355,154.4901,352.0437,154.282,346.3906,151.0871,355.7069" style="stroke:#00008B;stroke-width:1.0;"/></g><!--link Messaging System to Message Store--><g id="link_Messaging System_Message Store"><path d="M308.0171,250.3169 C324.5371,258.5469 344.1371,267.5969 362.4971,274.2969 C412.5271,292.5469 426.1271,294.6669 478.4971,304.2969 C510.1671,310.1169 520.1171,301.6469 550.4971,312.2969 C578.1771,322.0069 601.2815,336.7943 620.8915,351.4543 " fill="none" id="Messaging System-to-Message Store" style="stroke:#00008B;stroke-width:1.0;stroke-dasharray:7.0,7.0;"/><polygon fill="#00008B" points="625.6971,355.0469,620.8837,346.4543,621.6924,352.0531,616.0937,352.8618,625.6971,355.0469" style="stroke:#00008B;stroke-width:1.0;"/><text fill="#000000" font-family="sans-serif" font-size="13" lengthAdjust="spacing" textLength="80.1709" x="479.4971" y="300.3638">reads/writes</text></g><!--link Contact Management to User Database--><g id="link_Contact Management_User Database"><path d="M805.4171,250.4169 C803.5071,261.3769 801.4471,275.0069 800.4971,287.2969 C798.7071,310.5269 801.2825,331.1394 804.6725,349.2394 " fill="none" id="Contact Management-to-User Database" style="stroke:#00008B;stroke-width:1.0;stroke-dasharray:7.0,7.0;"/><polygon fill="#00008B" points="805.7771,355.1369,808.0519,345.5543,804.8566,350.2223,800.1886,347.0271,805.7771,355.1369" style="stroke:#00008B;stroke-width:1.0;"/><text fill="#000000" font-family="sans-serif" font-size="13" lengthAdjust="spacing" textLength="80.1709" x="801.4971" y="300.3638">reads/writes</text></g><!--link Voicemail System to Voicemail Store--><g id="link_Voicemail System_Voicemail Store"><path d="M999.0571,250.4269 C993.1971,278.3069 984.172,321.2553 978.262,349.3553 " fill="none" id="Voicemail System-to-Voicemail Store" style="stroke:#00008B;stroke-width:1.0;stroke-dasharray:7.0,7.0;"/><polygon fill="#00008B" points="977.0271,355.2269,982.7938,347.2428,978.0562,350.3339,974.9651,345.5963,977.0271,355.2269" style="stroke:#00008B;stroke-width:1.0;"/><text fill="#000000" font-family="sans-serif" font-size="13" lengthAdjust="spacing" textLength="80.1709" x="991.4971" y="300.3638">reads/writes</text></g><!--link Call History to Call Records--><g id="link_Call History_Call Records"><path d="M1168.4471,250.3469 C1169.2571,265.5769 1169.1271,286.5269 1164.4971,304.2969 C1159.7671,322.4469 1152.9629,336.0477 1144.4229,349.9177 " fill="none" id="Call History-to-Call Records" style="stroke:#00008B;stroke-width:1.0;stroke-dasharray:7.0,7.0;"/><polygon fill="#00008B" points="1141.2771,355.0269,1149.4019,349.4603,1143.8986,350.7692,1142.5897,345.2659,1141.2771,355.0269" style="stroke:#00008B;stroke-width:1.0;"/><text fill="#000000" font-family="sans-serif" font-size="13" lengthAdjust="spacing" textLength="36.334" x="1167.4971" y="300.3638">reads</text></g><!--link Billing System to Payment Gateway--><g id="link_Billing System_Payment Gateway"><path d="M595.9271,250.4469 C581.7871,259.2169 564.4171,268.6469 547.4971,274.2969 C525.8271,281.5369 460.5971,270.1469 445.4971,287.2969 C429.0771,305.9469 435.6981,330.2399 445.1381,350.2599 " fill="none" id="Billing System-to-Payment Gateway" style="stroke:#00008B;stroke-width:1.0;"/><polygon fill="#00008B" points="447.6971,355.6869,447.4766,345.8405,445.5646,351.1644,440.2407,349.2524,447.6971,355.6869" style="stroke:#00008B;stroke-width:1.0;"/></g><!--link Billing System to Call Records--><g id="link_Billing System_Call Records"><path d="M656.5471,250.4669 C671.1971,259.5969 689.5171,269.3069 707.4971,274.2969 C747.4571,285.3969 1045.4771,265.0769 1080.4971,287.2969 C1104.2471,302.3669 1114.7699,328.0798 1120.4599,349.3998 " fill="none" id="Billing System-to-Call Records" style="stroke:#00008B;stroke-width:1.0;stroke-dasharray:7.0,7.0;"/><polygon fill="#00008B" points="1122.0071,355.1969,1123.5511,345.4698,1120.7178,350.366,1115.8216,347.5327,1122.0071,355.1969" style="stroke:#00008B;stroke-width:1.0;"/><text fill="#000000" font-family="sans-serif" font-size="13" lengthAdjust="spacing" textLength="36.334" x="1098.4971" y="300.3638">reads</text></g><!--link Emergency Services to PSTN Gateway--><g id="link_Emergency Services_PSTN Gateway"><path d="M1570.7271,250.3269 C1591.6971,258.2869 1616.0771,267.1469 1638.4971,274.2969 C1700.7371,294.1469 1740.7171,260.4769 1780.4971,312.2969 C1810.8071,351.7869 1796.2871,377.0869 1780.4971,424.2969 C1772.7871,447.3369 1759.764,464.6933 1745.614,479.8333 " fill="none" id="Emergency Services-to-PSTN Gateway" style="stroke:#00008B;stroke-width:1.0;"/><polygon fill="#00008B" points="1741.5171,484.2169,1750.5848,480.3728,1744.9312,480.5639,1744.7401,474.9103,1741.5171,484.2169" style="stroke:#00008B;stroke-width:1.0;"/></g><!--link VoIP Server to PSTN Gateway--><g id="link_VoIP Server_PSTN Gateway"><path d="M1597.0971,399.9669 C1624.2371,423.3169 1663.0991,456.7633 1690.2691,480.1433 " fill="none" id="VoIP Server-to-PSTN Gateway" style="stroke:#00008B;stroke-width:1.0;"/><polygon fill="#00008B" points="1694.8171,484.0569,1690.6042,475.1546,1691.0271,480.7956,1685.3861,481.2185,1694.8171,484.0569" style="stroke:#00008B;stroke-width:1.0;"/></g><!--link SIP Server to PSTN Gateway--><g id="link_SIP Server_PSTN Gateway"><path d="M1714.4971,399.9669 C1715.6071,423.3169 1717.0925,454.6836 1718.2025,478.0636 " fill="none" id="SIP Server-to-PSTN Gateway" style="stroke:#00008B;stroke-width:1.0;"/><polygon fill="#00008B" points="1718.4871,484.0569,1722.0558,474.8773,1718.25,479.0625,1714.0648,475.2567,1718.4871,484.0569" style="stroke:#00008B;stroke-width:1.0;"/></g><!--link Admin Dashboard to User Management--><g id="link_Admin Dashboard_User Management"><path d="M1654.4471,102.8269 C1411.8971,108.1469 650.8671,127.5369 546.4971,163.2969 C520.1771,172.3169 499.1192,187.3299 481.6292,202.2699 " fill="none" id="Admin Dashboard-to-User Management" style="stroke:#00008B;stroke-width:1.0;"/><polygon fill="#00008B" points="477.0671,206.1669,486.5083,203.3628,480.8689,202.9194,481.3123,197.2799,477.0671,206.1669" style="stroke:#00008B;stroke-width:1.0;"/></g><!--link Admin Dashboard to Billing System--><g id="link_Admin Dashboard_Billing System"><path d="M1654.2371,103.2369 C1434.1371,109.3569 795.1671,129.8269 707.4971,163.2969 C683.5571,172.4369 665.3676,187.1325 650.1976,202.0325 " fill="none" id="Admin Dashboard-to-Billing System" style="stroke:#00008B;stroke-width:1.0;"/><polygon fill="#00008B" points="645.9171,206.2369,655.1408,202.784,649.4842,202.7332,649.535,197.0766,645.9171,206.2369" style="stroke:#00008B;stroke-width:1.0;"/></g><!--link Admin Dashboard to Reporting Tools--><g id="link_Admin Dashboard_Reporting Tools"><path d="M1727.3271,122.3869 C1726.0371,145.6469 1724.299,176.8661 1723.009,200.1461 " fill="none" id="Admin Dashboard-to-Reporting Tools" style="stroke:#00008B;stroke-width:1.0;"/><polygon fill="#00008B" points="1722.6771,206.1369,1727.1689,197.372,1722.9537,201.1445,1719.1811,196.9294,1722.6771,206.1369" style="stroke:#00008B;stroke-width:1.0;"/></g><!--link Reporting Tools to Call Records--><g id="link_Reporting Tools_Call Records"><path d="M1679.5571,250.4069 C1660.2171,259.2269 1636.6771,268.7069 1614.4971,274.2969 C1609.1571,275.6469 1224.6771,310.3969 1219.4971,312.2969 C1193.4871,321.8269 1172.5245,336.5835 1154.7945,351.3735 " fill="none" id="Reporting Tools-to-Call Records" style="stroke:#00008B;stroke-width:1.0;stroke-dasharray:7.0,7.0;"/><polygon fill="#00008B" points="1150.1871,355.2169,1159.6605,352.5234,1154.0266,352.014,1154.5359,346.3802,1150.1871,355.2169" style="stroke:#00008B;stroke-width:1.0;"/><text fill="#000000" font-family="sans-serif" font-size="13" lengthAdjust="spacing" textLength="36.334" x="1475.4971" y="300.3638">reads</text></g><!--link Reporting Tools to Message Store--><g id="link_Reporting Tools_Message Store"><path d="M1681.7871,250.3169 C1662.1171,259.5869 1637.6771,269.4669 1614.4971,274.2969 C1586.8071,280.0669 616.3671,267.1769 596.4971,287.2969 C576.6671,307.3869 596.4091,331.7733 618.9191,351.1433 " fill="none" id="Reporting Tools-to-Message Store" style="stroke:#00008B;stroke-width:1.0;stroke-dasharray:7.0,7.0;"/><polygon fill="#00008B" points="623.4671,355.0569,619.2542,346.1546,619.6771,351.7956,614.0361,352.2185,623.4671,355.0569" style="stroke:#00008B;stroke-width:1.0;"/><text fill="#000000" font-family="sans-serif" font-size="13" lengthAdjust="spacing" textLength="36.334" x="597.4971" y="300.3638">reads</text></g><!--link Reporting Tools to User Database--><g id="link_Reporting Tools_User Database"><path d="M1681.5171,250.3669 C1661.8971,259.5969 1637.5671,269.4069 1614.4971,274.2969 C1468.1571,305.2869 1086.8771,252.0969 941.4971,287.2969 C897.3271,297.9869 860.0215,327.9385 835.9915,350.8285 " fill="none" id="Reporting Tools-to-User Database" style="stroke:#00008B;stroke-width:1.0;stroke-dasharray:7.0,7.0;"/><polygon fill="#00008B" points="831.6471,354.9669,840.9226,351.6557,835.2674,351.5183,835.4048,345.8631,831.6471,354.9669" style="stroke:#00008B;stroke-width:1.0;"/><text fill="#000000" font-family="sans-serif" font-size="13" lengthAdjust="spacing" textLength="36.334" x="942.4971" y="300.3638">reads</text></g><!--link Authentication Service to Encryption Module--><g id="link_Authentication Service_Encryption Module"><path d="M1323.4971,399.9669 C1323.4971,423.3169 1323.4971,454.6769 1323.4971,478.0569 " fill="none" id="Authentication Service-to-Encryption Module" style="stroke:#00008B;stroke-width:1.0;"/><polygon fill="#00008B" points="1323.4971,484.0569,1327.4971,475.0569,1323.4971,479.0569,1319.4971,475.0569,1323.4971,484.0569" style="stroke:#00008B;stroke-width:1.0;"/></g><!--link User Management to Email Service--><g id="link_User Management_Email Service"><path d="M430.7171,250.4269 C399.1571,278.4669 348.252,323.7012 316.722,351.7212 " fill="none" id="User Management-to-Email Service" style="stroke:#00008B;stroke-width:1.0;"/><polygon fill="#00008B" points="312.2371,355.7069,321.6216,352.7183,315.9745,352.3855,316.3074,346.7384,312.2371,355.7069" style="stroke:#00008B;stroke-width:1.0;"/></g><!--link Web Interface to UI_API--><g id="link_Web Interface_UI_API"><path d="M333.0371,122.4369 C318.7771,131.0969 301.3571,140.4369 284.4971,146.2969 C238.5971,162.2369 221.4471,144.8369 176.4971,163.2969 C143.3971,176.8969 118.2118,198.1968 103.2918,212.1868 " fill="none" id="Web Interface-to-UI_API" style="stroke:#00008B;stroke-width:1.0;"/><path d="M104.0273,223.0907 A9,9 0 0 0 92.4577 210.752" fill="none" style="stroke:#00008B;stroke-width:1.5;"/></g><!--link Mobile App to UI_API--><g id="link_Mobile App_UI_API"><path d="M192.4071,122.3869 C164.1071,150.6869 122.2181,192.5758 102.8281,211.9658 " fill="none" id="Mobile App-to-UI_API" style="stroke:#00008B;stroke-width:1.0;"/><path d="M103.9138,222.8404 A9,9 0 0 0 91.9535 210.8801" fill="none" style="stroke:#00008B;stroke-width:1.5;"/></g><!--link Admin Dashboard to ADMIN_API--><g id="link_Admin Dashboard_ADMIN_API"><path d="M1763.1471,122.5669 C1780.4471,133.8169 1801.2971,148.3769 1818.4971,163.2969 C1839.4971,181.5169 1854.4717,198.8534 1864.7917,211.5234 " fill="none" id="Admin Dashboard-to-ADMIN_API" style="stroke:#00008B;stroke-width:1.0;"/><path d="M1875.7204,211.5492 A9,9 0 0 0 1862.6058 222.2313" fill="none" style="stroke:#00008B;stroke-width:1.5;"/></g><!--link Call Management to TEL_API--><g id="link_Call Management_TEL_API"><path d="M1378.3971,250.3469 C1396.4071,259.7169 1415.8771,272.0969 1430.4971,287.2969 C1478.0371,336.7269 1464.7371,366.3969 1501.4971,424.2969 C1519.3471,452.4069 1537.949,475.2903 1550.009,489.5103 " fill="none" id="Call Management-to-TEL_API" style="stroke:#00008B;stroke-width:1.0;"/><path d="M1560.936,489.3191 A9,9 0 0 0 1548.0361 500.2595" fill="none" style="stroke:#00008B;stroke-width:1.5;"/></g><!--link VoIP Server to TEL_API--><g id="link_VoIP Server_TEL_API"><path d="M1570.9871,399.9669 C1568.9571,428.5269 1566.1462,468.0521 1564.7762,487.3221 " fill="none" id="VoIP Server-to-TEL_API" style="stroke:#00008B;stroke-width:1.0;"/><path d="M1572.7213,494.8262 A9,9 0 0 0 1555.8494 493.6267" fill="none" style="stroke:#00008B;stroke-width:1.5;"/></g><!--link SIP Server to TEL_API--><g id="link_SIP Server_TEL_API"><path d="M1688.3871,399.9669 C1654.3671,428.6669 1602.9012,472.0596 1580.2912,491.1296 " fill="none" id="SIP Server-to-TEL_API" style="stroke:#00008B;stroke-width:1.0;"/><path d="M1580.4527,502.0571 A9,9 0 0 0 1569.5474 489.1275" fill="none" style="stroke:#00008B;stroke-width:1.5;"/></g><!--link Messaging System to MSG_API--><g id="link_Messaging System_MSG_API"><path d="M228.3271,250.3269 C212.1571,258.3669 193.1671,267.2869 175.4971,274.2969 C123.0971,295.0769 87.8571,266.8569 54.4971,312.2969 C11.6671,370.6469 39.0763,458.5448 49.7663,487.5248 " fill="none" id="Messaging System-to-MSG_API" style="stroke:#00008B;stroke-width:1.0;"/><path d="M60.0964,491.092 A9,9 0 0 0 44.2272 496.9458" fill="none" style="stroke:#00008B;stroke-width:1.5;"/></g><!--link SMS Gateway to MSG_API--><g id="link_SMS Gateway_MSG_API"><path d="M118.9471,399.9669 C102.0171,428.5269 77.7686,469.4261 66.3386,488.6961 " fill="none" id="SMS Gateway-to-MSG_API" style="stroke:#00008B;stroke-width:1.0;"/><path d="M70.0813,498.9639 A9,9 0 0 0 55.5335 490.3349" fill="none" style="stroke:#00008B;stroke-width:1.5;"/></g><!--link User Database to DB_API--><g id="link_User Database_DB_API"><path d="M819.0971,400.5469 C830.3771,429.0869 845.9473,468.5085 853.5773,487.7885 " fill="none" id="User Database-to-DB_API" style="stroke:#00008B;stroke-width:1.0;"/><path d="M863.9882,491.1126 A9,9 0 0 0 848.2605 497.3368" fill="none" style="stroke:#00008B;stroke-width:1.5;"/></g><!--link Call Records to DB_API--><g id="link_Call Records_DB_API"><path d="M1095.3971,400.4069 C1083.2371,408.4069 1068.9871,417.2369 1055.4971,424.2969 C986.6271,460.3069 907.5388,488.9323 879.1388,498.8423 " fill="none" id="Call Records-to-DB_API" style="stroke:#00008B;stroke-width:1.0;"/><path d="M875.3897,509.1078 A9,9 0 0 0 869.8171 493.1377" fill="none" style="stroke:#00008B;stroke-width:1.5;"/></g><!--link Message Store to DB_API--><g id="link_Message Store_DB_API"><path d="M688.2571,400.5469 C737.5071,430.4969 814.7627,477.4814 842.8027,494.5314 " fill="none" id="Message Store-to-DB_API" style="stroke:#00008B;stroke-width:1.0;"/><path d="M853.1109,490.9014 A9,9 0 0 0 844.323 505.3538" fill="none" style="stroke:#00008B;stroke-width:1.5;"/></g><!--link Voicemail Store to DB_API--><g id="link_Voicemail Store_DB_API"><path d="M953.2471,400.5469 C927.9771,429.0869 891.466,470.3197 874.396,489.5997 " fill="none" id="Voicemail Store-to-DB_API" style="stroke:#00008B;stroke-width:1.0;"/><path d="M876.1396,500.3884 A9,9 0 0 0 863.4755 489.176" fill="none" style="stroke:#00008B;stroke-width:1.5;"/></g><!--SRC=[ZLLDZvim4BtpAwoSSjcjscCFbPAGRYCjKRHajuTgLJam9LOCHhPfIgl-zneR4sFCgfVLClFcpTVpH5n8LMEEIvInicOLL1BzYH1Qu-nISDPK-OPHnj4ZASuolRHhsa3dPZm7RbmnvfVUlEASNIVMpwoIUro2SXDCUqDAVWDw_o7w6qMII0he21Jgiwf0vL9_LdLDIOObOHMwGvkXk9ZWGfKRHRMg41U05iy2EDfL4lWFdC52b__jAvnkjjVEah0JePhtjKiwX6yO7sNh2JHhWYk5ALLUJR71bFgs18J01QaAbBP2Gcc0ga6SIH_xmaW69IPqXEr8ln0X6M-rOKqezVYs9V02ggn5AV2VYaICUzZ-KfrMsFAAleS3RhlSw05Bk6B3dYRfw7jhwZ6qOzOOIunILPVwCeovifomi4EF-y_5oAKRUe9CIKICFMPMe3cz86SqnkaMaaBMS2BRlgrL8y-gBQkEeVQkcohZRQtD2SiRwdMq1tbb_39CiITyORk3jW4tCt8-tV1LNf8A7HcZDj9OOYpE9uPvhgEVe6PSTXlKI4sHKTRaQ75eJafcZjJxWko-qkF-jXmLviaOtTrz2YZJbVOC99gO371kb5Fu_RtbjLj_HHyH1voBTrUr710gYVz0J9BHU6SmwPiGdTpLLPTxo3fvWZsbg_G0I9EE91dgQFgI_syKaxTkmZoTpytGteDmvpf2GRrBOTgUFFe9x4tEmAdfUKVYZ4PR3I7SbOOP_CSp9-ympZ-JCx39QumcfhS6CWCEosOE7TPADu7mypEL1sxPt3FsZdX4xCdmVntHwh1R82pGy-wx-ZTmO9RMCpugrknIcu5RnbMSxFOcDB29vStjKjXBs0uqn-sZ8GdSYUNWzCHtSwHXkvlpTWbipYHzw7iEN9Bbu7KFYkjmoUsM1-vuRO8z3QXmwnaBpt5u8dCyaoio-Fu1]--></g></svg>